<?xml version="1.0" encoding="UTF-8"?>
<svg xmlns="http://www.w3.org/2000/svg" xmlns:xlink="http://www.w3.org/1999/xlink"
     width="600" height="800" viewBox="0 -800 600 800">
<defs>
</defs>
<path d="M0,0 L600,0" stroke-width="10" stroke="black" />
<path d="M0,-800 L600,-800" stroke-width="10" stroke="black" />
<path d="M0,0 L600,0" stroke-width="5" stroke="black" />
<path d="M3,0 L22,-100" stroke-width="0.5" stroke="black" />
<path d="M7,0 L22,-100" stroke-width="2" stroke="black" />
<path d="M16,0 L368,-100" stroke-width="3" stroke="black" />
<path d="M38,0 L389,-100" stroke-width="1" stroke="black" />
<path d="M71,0 L497,-100" stroke-width="2" stroke="black" />
<path d="M78,0 L368,-100" stroke-width="2" stroke="black" />
<path d="M90,0 L368,-100" stroke-width="2" stroke="black" />
<path d="M97,0 L368,-100" stroke-width="2" stroke="black" />
<path d="M101,0 L22,-100" stroke-width="1" stroke="black" />
<path d="M114,0 L389,-100" stroke-width="1" stroke="black" />
<path d="M133,0 L22,-100" stroke-width="1" stroke="black" />
<path d="M145,0 L389,-100" stroke-width="2" stroke="black" />
<path d="M160,0 L368,-100" stroke-width="1" stroke="black" />
<path d="M163,0 L22,-100" stroke-width="1" stroke="black" />
<path d="M168,0 L31,-100" stroke-width="3" stroke="black" />
<path d="M174,0 L497,-100" stroke-width="1" stroke="black" />
<path d="M187,0 L22,-100" stroke-width="0.5" stroke="black" />
<path d="M196,0 L31,-100" stroke-width="3" stroke="black" />
<path d="M197,0 L22,-100" stroke-width="0.5" stroke="black" />
<path d="M234,0 L497,-100" stroke-width="0.5" stroke="black" />
<path d="M236,0 L497,-100" stroke-width="3" stroke="black" />
<path d="M238,0 L22,-100" stroke-width="2" stroke="black" />
<path d="M248,0 L368,-100" stroke-width="1" stroke="black" />
<path d="M256,0 L389,-100" stroke-width="2" stroke="black" />
<path d="M267,0 L497,-100" stroke-width="1" stroke="black" />
<path d="M288,0 L368,-100" stroke-width="2" stroke="black" />
<path d="M311,0 L497,-100" stroke-width="1" stroke="black" />
<path d="M314,0 L22,-100" stroke-width="3" stroke="black" />
<path d="M320,0 L368,-100" stroke-width="2" stroke="black" />
<path d="M340,0 L497,-100" stroke-width="2" stroke="black" />
<path d="M342,0 L22,-100" stroke-width="2" stroke="black" />
<path d="M350,0 L31,-100" stroke-width="2" stroke="black" />
<path d="M351,0 L368,-100" stroke-width="3" stroke="black" />
<path d="M370,0 L368,-100" stroke-width="2" stroke="black" />
<path d="M396,0 L31,-100" stroke-width="2" stroke="black" />
<path d="M415,0 L497,-100" stroke-width="1" stroke="black" />
<path d="M428,0 L497,-100" stroke-width="0.5" stroke="black" />
<path d="M440,0 L389,-100" stroke-width="1" stroke="black" />
<path d="M449,0 L497,-100" stroke-width="1" stroke="black" />
<path d="M461,0 L31,-100" stroke-width="0.5" stroke="black" />
<path d="M477,0 L22,-100" stroke-width="2" stroke="black" />
<path d="M482,0 L31,-100" stroke-width="2" stroke="black" />
<path d="M532,0 L368,-100" stroke-width="2" stroke="black" />
<path d="M547,0 L497,-100" stroke-width="2" stroke="black" />
<path d="M555,0 L368,-100" stroke-width="0.5" stroke="black" />
<path d="M567,0 L31,-100" stroke-width="1" stroke="black" />
<path d="M571,0 L22,-100" stroke-width="2" stroke="black" />
<path d="M591,0 L497,-100" stroke-width="2" stroke="black" />
<path d="M593,0 L389,-100" stroke-width="0.5" stroke="black" />
<path d="M595,0 L368,-100" stroke-width="1" stroke="black" />
<path d="M0,-100 L600,-100" stroke-width="5" stroke="black" />
<path d="M22,-100 L296,-200" stroke-width="2" stroke="black" />
<path d="M31,-100 L231,-200" stroke-width="1" stroke="black" />
<path d="M368,-100 L323,-200" stroke-width="0.5" stroke="black" />
<path d="M389,-100 L427,-200" stroke-width="2" stroke="black" />
<path d="M497,-100 L430,-200" stroke-width="1" stroke="black" />
<path d="M0,-200 L600,-200" stroke-width="5" stroke="black" />
<path d="M17,-200 L332,-300" stroke-width="2" stroke="black" />
<path d="M170,-200 L331,-300" stroke-width="1" stroke="black" />
<path d="M231,-200 L96,-300" stroke-width="1" stroke="black" />
<path d="M252,-200 L536,-300" stroke-width="1" stroke="black" />
<path d="M256,-200 L536,-300" stroke-width="0.5" stroke="black" />
<path d="M296,-200 L237,-300" stroke-width="2" stroke="black" />
<path d="M323,-200 L536,-300" stroke-width="3" stroke="black" />
<path d="M380,-200 L331,-300" stroke-width="2" stroke="black" />
<path d="M427,-200 L332,-300" stroke-width="3" stroke="black" />
<path d="M430,-200 L237,-300" stroke-width="1" stroke="black" />
<path d="M439,-200 L96,-300" stroke-width="1" stroke="black" />
<path d="M525,-200 L332,-300" stroke-width="3" stroke="black" />
<path d="M556,-200 L587,-300" stroke-width="1" stroke="black" />
<path d="M582,-200 L536,-300" stroke-width="3" stroke="black" />
<path d="M598,-200 L587,-300" stroke-width="1" stroke="black" />
<path d="M0,-300 L600,-300" stroke-width="5" stroke="black" />
<path d="M96,-300 L83,-400" stroke-width="1" stroke="black" />
<path d="M237,-300 L157,-400" stroke-width="1" stroke="black" />
<path d="M331,-300 L83,-400" stroke-width="2" stroke="black" />
<path d="M332,-300 L157,-400" stroke-width="1" stroke="black" />
<path d="M536,-300 L157,-400" stroke-width="1" stroke="black" />
<path d="M587,-300 L157,-400" stroke-width="2" stroke="black" />
<path d="M0,-400 L600,-400" stroke-width="5" stroke="black" />
<path d="M21,-400 L326,-500" stroke-width="2" stroke="black" />
<path d="M34,-400 L206,-500" stroke-width="1" stroke="black" />
<path d="M60,-400 L326,-500" stroke-width="1" stroke="black" />
<path d="M83,-400 L326,-500" stroke-width="0.5" stroke="black" />
<path d="M119,-400 L344,-500" stroke-width="1" stroke="black" />
<path d="M145,-400 L206,-500" stroke-width="1" stroke="black" />
<path d="M157,-400 L206,-500" stroke-width="0.5" stroke="black" />
<path d="M164,-400 L344,-500" stroke-width="0.5" stroke="black" />
<path d="M179,-400 L473,-500" stroke-width="2" stroke="black" />
<path d="M179,-400 L344,-500" stroke-width="1" stroke="black" />
<path d="M183,-400 L158,-500" stroke-width="0.5" stroke="black" />
<path d="M184,-400 L158,-500" stroke-width="3" stroke="black" />
<path d="M261,-400 L326,-500" stroke-width="2" stroke="black" />
<path d="M294,-400 L179,-500" stroke-width="1" stroke="black" />
<path d="M344,-400 L335,-500" stroke-width="1" stroke="black" />
<path d="M364,-400 L179,-500" stroke-width="0.5" stroke="black" />
<path d="M385,-400 L344,-500" stroke-width="0.5" stroke="black" />
<path d="M387,-400 L158,-500" stroke-width="1" stroke="black" />
<path d="M388,-400 L179,-500" stroke-width="2" stroke="black" />
<path d="M423,-400 L158,-500" stroke-width="1" stroke="black" />
<path d="M460,-400 L179,-500" stroke-width="2" stroke="black" />
<path d="M490,-400 L326,-500" stroke-width="1" stroke="black" />
<path d="M536,-400 L335,-500" stroke-width="1" stroke="black" />
<path d="M572,-400 L344,-500" stroke-width="2" stroke="black" />
<path d="M585,-400 L158,-500" stroke-width="1" stroke="black" />
<path d="M0,-500 L600,-500" stroke-width="5" stroke="black" />
<path d="M158,-500 L43,-600" stroke-width="2" stroke="black" />
<path d="M179,-500 L110,-600" stroke-width="3" stroke="black" />
<path d="M206,-500 L40,-600" stroke-width="3" stroke="black" />
<path d="M326,-500 L40,-600" stroke-width="2" stroke="black" />
<path d="M335,-500 L174,-600" stroke-width="1" stroke="black" />
<path d="M344,-500 L226,-600" stroke-width="2" stroke="black" />
<path d="M473,-500 L174,-600" stroke-width="1" stroke="black" />
<path d="M0,-600 L600,-600" stroke-width="5" stroke="black" />
<path d="M22,-600 L94,-700" stroke-width="3" stroke="black" />
<path d="M25,-600 L432,-700" stroke-width="2" stroke="black" />
<path d="M31,-600 L94,-700" stroke-width="2" stroke="black" />
<path d="M40,-600 L432,-700" stroke-width="2" stroke="black" />
<path d="M43,-600 L32,-700" stroke-width="2" stroke="black" />
<path d="M46,-600 L291,-700" stroke-width="3" stroke="black" />
<path d="M110,-600 L291,-700" stroke-width="2" stroke="black" />
<path d="M118,-600 L94,-700" stroke-width="1" stroke="black" />
<path d="M174,-600 L291,-700" stroke-width="1" stroke="black" />
<path d="M226,-600 L291,-700" stroke-width="2" stroke="black" />
<path d="M268,-600 L291,-700" stroke-width="1" stroke="black" />
<path d="M273,-600 L32,-700" stroke-width="1" stroke="black" />
<path d="M283,-600 L94,-700" stroke-width="1" stroke="black" />
<path d="M310,-600 L291,-700" stroke-width="2" stroke="black" />
<path d="M335,-600 L432,-700" stroke-width="3" stroke="black" />
<path d="M338,-600 L432,-700" stroke-width="0.5" stroke="black" />
<path d="M341,-600 L32,-700" stroke-width="0.5" stroke="black" />
<path d="M363,-600 L291,-700" stroke-width="1" stroke="black" />
<path d="M395,-600 L432,-700" stroke-width="1" stroke="black" />
<path d="M423,-600 L432,-700" stroke-width="2" stroke="black" />
<path d="M444,-600 L32,-700" stroke-width="0.5" stroke="black" />
<path d="M461,-600 L32,-700" stroke-width="2" stroke="black" />
<path d="M510,-600 L432,-700" stroke-width="3" stroke="black" />
<path d="M511,-600 L94,-700" stroke-width="3" stroke="black" />
<path d="M527,-600 L32,-700" stroke-width="2" stroke="black" />
<path d="M531,-600 L291,-700" stroke-width="1" stroke="black" />
<path d="M536,-600 L432,-700" stroke-width="0.5" stroke="black" />
<path d="M565,-600 L432,-700" stroke-width="1" stroke="black" />
<path d="M576,-600 L32,-700" stroke-width="0.5" stroke="black" />
<path d="M587,-600 L94,-700" stroke-width="1" stroke="black" />
<path d="M0,-700 L600,-700" stroke-width="5" stroke="black" />
<path d="M32,-700 L196,-800" stroke-width="1" stroke="black" />
<path d="M94,-700 L70,-800" stroke-width="2" stroke="black" />
<path d="M291,-700 L514,-800" stroke-width="3" stroke="black" />
<path d="M432,-700 L514,-800" stroke-width="1" stroke="black" />
</svg>