<?xml version="1.0" encoding="UTF-8"?>
<svg xmlns="http://www.w3.org/2000/svg" xmlns:xlink="http://www.w3.org/1999/xlink"
     width="800" height="800" viewBox="-400.0 -400.0 800 800">
<defs>
</defs>
<circle cx="779.0" cy="343.0" r="110" fill-opacity="0.0" stroke="black" stroke-width="1" />
<circle cx="667.7142857142857" cy="294.0" r="114" fill-opacity="0.0" stroke="black" stroke-width="3" />
<circle cx="556.4285714285714" cy="245.0" r="45" fill-opacity="0.0" stroke="black" stroke-width="1" />
<circle cx="445.1428571428571" cy="196.0" r="104" fill-opacity="0.0" stroke="black" stroke-width="2" />
<circle cx="333.85714285714283" cy="147.0" r="84" fill-opacity="0.0" stroke="black" stroke-width="2" />
<circle cx="222.57142857142856" cy="98.0" r="114" fill-opacity="0.0" stroke="black" stroke-width="1" />
<circle cx="111.28571428571422" cy="49.0" r="95" fill-opacity="0.0" stroke="black" stroke-width="4" />
<circle cx="0.0" cy="-0.0" r="104" fill-opacity="0.0" stroke="black" stroke-width="2" />
<circle cx="-738.0" cy="-988.0" r="104" fill-opacity="0.0" stroke="black" stroke-width="2" />
<circle cx="-632.5714285714286" cy="-846.8571428571429" r="119" fill-opacity="0.0" stroke="black" stroke-width="2" />
<circle cx="-527.1428571428571" cy="-705.7142857142858" r="67" fill-opacity="0.0" stroke="black" stroke-width="2" />
<circle cx="-421.7142857142857" cy="-564.5714285714286" r="68" fill-opacity="0.0" stroke="black" stroke-width="3" />
<circle cx="-316.2857142857143" cy="-423.42857142857144" r="116" fill-opacity="0.0" stroke="black" stroke-width="3" />
<circle cx="-210.8571428571429" cy="-282.28571428571433" r="96" fill-opacity="0.0" stroke="black" stroke-width="5" />
<circle cx="-105.42857142857144" cy="-141.1428571428571" r="97" fill-opacity="0.0" stroke="black" stroke-width="2" />
<circle cx="0.0" cy="-0.0" r="107" fill-opacity="0.0" stroke="black" stroke-width="3" />
<circle cx="1494.0" cy="620.0" r="96" fill-opacity="0.0" stroke="black" stroke-width="1" />
<circle cx="1280.5714285714287" cy="531.4285714285714" r="67" fill-opacity="0.0" stroke="black" stroke-width="2" />
<circle cx="1067.142857142857" cy="442.8571428571429" r="89" fill-opacity="0.0" stroke="black" stroke-width="2" />
<circle cx="853.7142857142858" cy="354.2857142857143" r="41" fill-opacity="0.0" stroke="black" stroke-width="2" />
<circle cx="640.2857142857143" cy="265.7142857142857" r="56" fill-opacity="0.0" stroke="black" stroke-width="1" />
<circle cx="426.8571428571429" cy="177.14285714285717" r="119" fill-opacity="0.0" stroke="black" stroke-width="2" />
<circle cx="213.42857142857156" cy="88.57142857142856" r="89" fill-opacity="0.0" stroke="black" stroke-width="1" />
<circle cx="0.0" cy="-0.0" r="67" fill-opacity="0.0" stroke="black" stroke-width="1" />
<circle cx="-310.0" cy="1147.0" r="110" fill-opacity="0.0" stroke="black" stroke-width="2" />
<circle cx="-265.7142857142857" cy="983.1428571428571" r="74" fill-opacity="0.0" stroke="black" stroke-width="2" />
<circle cx="-221.42857142857144" cy="819.2857142857142" r="115" fill-opacity="0.0" stroke="black" stroke-width="1" />
<circle cx="-177.14285714285714" cy="655.4285714285714" r="71" fill-opacity="0.0" stroke="black" stroke-width="2" />
<circle cx="-132.85714285714286" cy="491.57142857142856" r="41" fill-opacity="0.0" stroke="black" stroke-width="1" />
<circle cx="-88.57142857142858" cy="327.71428571428567" r="54" fill-opacity="0.0" stroke="black" stroke-width="3" />
<circle cx="-44.28571428571428" cy="163.8571428571429" r="56" fill-opacity="0.0" stroke="black" stroke-width="1" />
<circle cx="702.0" cy="-983.0" r="81" fill-opacity="0.0" stroke="black" stroke-width="1" />
<circle cx="601.7142857142857" cy="-842.5714285714286" r="66" fill-opacity="0.0" stroke="black" stroke-width="3" />
<circle cx="501.42857142857144" cy="-702.1428571428571" r="113" fill-opacity="0.0" stroke="black" stroke-width="2" />
<circle cx="401.1428571428571" cy="-561.7142857142858" r="104" fill-opacity="0.0" stroke="black" stroke-width="2" />
<circle cx="300.85714285714283" cy="-421.28571428571433" r="64" fill-opacity="0.0" stroke="black" stroke-width="4" />
<circle cx="200.57142857142856" cy="-280.8571428571429" r="76" fill-opacity="0.0" stroke="black" stroke-width="3" />
<circle cx="100.28571428571422" cy="-140.42857142857156" r="97" fill-opacity="0.0" stroke="black" stroke-width="1" />
<circle cx="512.0" cy="405.0" r="51" fill-opacity="0.0" stroke="black" stroke-width="1" />
<circle cx="438.8571428571429" cy="347.14285714285717" r="86" fill-opacity="0.0" stroke="black" stroke-width="1" />
<circle cx="365.7142857142857" cy="289.2857142857143" r="48" fill-opacity="0.0" stroke="black" stroke-width="1" />
<circle cx="292.57142857142856" cy="231.42857142857144" r="67" fill-opacity="0.0" stroke="black" stroke-width="3" />
<circle cx="219.42857142857144" cy="173.57142857142858" r="107" fill-opacity="0.0" stroke="black" stroke-width="5" />
<circle cx="146.28571428571433" cy="115.71428571428572" r="60" fill-opacity="0.0" stroke="black" stroke-width="1" />
<circle cx="73.14285714285717" cy="57.85714285714289" r="111" fill-opacity="0.0" stroke="black" stroke-width="0.5" />
<circle cx="-173.0" cy="549.0" r="55" fill-opacity="0.0" stroke="black" stroke-width="2" />
<circle cx="-148.28571428571428" cy="470.57142857142856" r="61" fill-opacity="0.0" stroke="black" stroke-width="3" />
<circle cx="-123.57142857142857" cy="392.1428571428571" r="44" fill-opacity="0.0" stroke="black" stroke-width="1" />
<circle cx="-98.85714285714286" cy="313.7142857142857" r="68" fill-opacity="0.0" stroke="black" stroke-width="1" />
<circle cx="-74.14285714285714" cy="235.28571428571428" r="44" fill-opacity="0.0" stroke="black" stroke-width="2" />
<circle cx="-49.428571428571416" cy="156.85714285714283" r="65" fill-opacity="0.0" stroke="black" stroke-width="2" />
<circle cx="-24.714285714285722" cy="78.42857142857144" r="104" fill-opacity="0.0" stroke="black" stroke-width="1" />
<circle cx="-179.0" cy="-813.0" r="54" fill-opacity="0.0" stroke="black" stroke-width="2" />
<circle cx="-153.42857142857142" cy="-696.8571428571429" r="85" fill-opacity="0.0" stroke="black" stroke-width="5" />
<circle cx="-127.85714285714286" cy="-580.7142857142858" r="69" fill-opacity="0.0" stroke="black" stroke-width="2" />
<circle cx="-102.28571428571428" cy="-464.57142857142856" r="74" fill-opacity="0.0" stroke="black" stroke-width="5" />
<circle cx="-76.71428571428571" cy="-348.42857142857144" r="100" fill-opacity="0.0" stroke="black" stroke-width="2" />
<circle cx="-51.14285714285714" cy="-232.28571428571433" r="66" fill-opacity="0.0" stroke="black" stroke-width="2" />
<circle cx="-25.571428571428555" cy="-116.14285714285711" r="40" fill-opacity="0.0" stroke="black" stroke-width="1" />
<circle cx="0.0" cy="-0.0" r="57" fill-opacity="0.0" stroke="black" stroke-width="1" />
<circle cx="-1239.0" cy="569.0" r="98" fill-opacity="0.0" stroke="black" stroke-width="2" />
<circle cx="-1062.0" cy="487.7142857142857" r="58" fill-opacity="0.0" stroke="black" stroke-width="1" />
<circle cx="-885.0" cy="406.42857142857144" r="75" fill-opacity="0.0" stroke="black" stroke-width="3" />
<circle cx="-708.0" cy="325.1428571428571" r="83" fill-opacity="0.0" stroke="black" stroke-width="1" />
<circle cx="-531.0" cy="243.85714285714283" r="115" fill-opacity="0.0" stroke="black" stroke-width="3" />
<circle cx="-354.0" cy="162.57142857142856" r="119" fill-opacity="0.0" stroke="black" stroke-width="2" />
<circle cx="-177.0" cy="81.28571428571422" r="68" fill-opacity="0.0" stroke="black" stroke-width="3" />
<circle cx="0.0" cy="-0.0" r="76" fill-opacity="0.0" stroke="black" stroke-width="1" />
<circle cx="-1017.0" cy="-1022.0" r="78" fill-opacity="0.0" stroke="black" stroke-width="3" />
<circle cx="-871.7142857142858" cy="-876.0" r="106" fill-opacity="0.0" stroke="black" stroke-width="2" />
<circle cx="-726.4285714285714" cy="-730.0" r="113" fill-opacity="0.0" stroke="black" stroke-width="2" />
<circle cx="-581.1428571428571" cy="-584.0" r="81" fill-opacity="0.0" stroke="black" stroke-width="2" />
<circle cx="-435.8571428571429" cy="-438.0" r="55" fill-opacity="0.0" stroke="black" stroke-width="0.5" />
<circle cx="-290.57142857142867" cy="-292.0" r="115" fill-opacity="0.0" stroke="black" stroke-width="1" />
<circle cx="-145.28571428571433" cy="-146.0" r="44" fill-opacity="0.0" stroke="black" stroke-width="2" />
</svg>