<?xml version="1.0" encoding="UTF-8"?>
<svg xmlns="http://www.w3.org/2000/svg" xmlns:xlink="http://www.w3.org/1999/xlink"
     width="800" height="800" viewBox="-400.0 -400.0 800 800">
<defs>
</defs>
<circle cx="916.0" cy="-90.0" r="54" fill-opacity="0.0" stroke="black" stroke-width="1" />
<circle cx="785.1428571428571" cy="-77.14285714285714" r="40" fill-opacity="0.0" stroke="black" stroke-width="2" />
<circle cx="654.2857142857142" cy="-64.28571428571428" r="97" fill-opacity="0.0" stroke="black" stroke-width="3" />
<circle cx="523.4285714285714" cy="-51.42857142857143" r="101" fill-opacity="0.0" stroke="black" stroke-width="5" />
<circle cx="392.57142857142856" cy="-38.57142857142857" r="77" fill-opacity="0.0" stroke="black" stroke-width="4" />
<circle cx="261.71428571428567" cy="-25.714285714285708" r="72" fill-opacity="0.0" stroke="black" stroke-width="1" />
<circle cx="130.8571428571429" cy="-12.857142857142861" r="91" fill-opacity="0.0" stroke="black" stroke-width="3" />
<circle cx="-1234.0" cy="-816.0" r="108" fill-opacity="0.0" stroke="black" stroke-width="3" />
<circle cx="-1057.7142857142858" cy="-699.4285714285714" r="112" fill-opacity="0.0" stroke="black" stroke-width="3" />
<circle cx="-881.4285714285714" cy="-582.8571428571429" r="50" fill-opacity="0.0" stroke="black" stroke-width="0.5" />
<circle cx="-705.1428571428571" cy="-466.2857142857143" r="117" fill-opacity="0.0" stroke="black" stroke-width="0.5" />
<circle cx="-528.8571428571429" cy="-349.7142857142857" r="101" fill-opacity="0.0" stroke="black" stroke-width="2" />
<circle cx="-352.57142857142867" cy="-233.1428571428571" r="61" fill-opacity="0.0" stroke="black" stroke-width="2" />
<circle cx="-176.28571428571422" cy="-116.57142857142856" r="86" fill-opacity="0.0" stroke="black" stroke-width="2" />
<circle cx="0.0" cy="-0.0" r="99" fill-opacity="0.0" stroke="black" stroke-width="2" />
<circle cx="1167.0" cy="1024.0" r="70" fill-opacity="0.0" stroke="black" stroke-width="2" />
<circle cx="1000.2857142857142" cy="877.7142857142858" r="74" fill-opacity="0.0" stroke="black" stroke-width="0.5" />
<circle cx="833.5714285714286" cy="731.4285714285714" r="102" fill-opacity="0.0" stroke="black" stroke-width="3" />
<circle cx="666.8571428571429" cy="585.1428571428571" r="61" fill-opacity="0.0" stroke="black" stroke-width="1" />
<circle cx="500.1428571428571" cy="438.8571428571429" r="62" fill-opacity="0.0" stroke="black" stroke-width="2" />
<circle cx="333.42857142857133" cy="292.57142857142867" r="101" fill-opacity="0.0" stroke="black" stroke-width="3" />
<circle cx="166.71428571428567" cy="146.28571428571433" r="104" fill-opacity="0.0" stroke="black" stroke-width="1" />
<circle cx="0.0" cy="-0.0" r="105" fill-opacity="0.0" stroke="black" stroke-width="1" />
<circle cx="1492.0" cy="1189.0" r="105" fill-opacity="0.0" stroke="black" stroke-width="2" />
<circle cx="1278.857142857143" cy="1019.1428571428571" r="116" fill-opacity="0.0" stroke="black" stroke-width="1" />
<circle cx="1065.7142857142858" cy="849.2857142857142" r="61" fill-opacity="0.0" stroke="black" stroke-width="3" />
<circle cx="852.5714285714286" cy="679.4285714285714" r="104" fill-opacity="0.0" stroke="black" stroke-width="2" />
<circle cx="639.4285714285714" cy="509.57142857142856" r="82" fill-opacity="0.0" stroke="black" stroke-width="2" />
<circle cx="426.2857142857142" cy="339.71428571428567" r="77" fill-opacity="0.0" stroke="black" stroke-width="3" />
<circle cx="213.1428571428571" cy="169.8571428571429" r="43" fill-opacity="0.0" stroke="black" stroke-width="2" />
<circle cx="0.0" cy="-0.0" r="70" fill-opacity="0.0" stroke="black" stroke-width="1" />
<circle cx="1398.0" cy="-941.0" r="87" fill-opacity="0.0" stroke="black" stroke-width="2" />
<circle cx="1198.2857142857142" cy="-806.5714285714286" r="63" fill-opacity="0.0" stroke="black" stroke-width="3" />
<circle cx="998.5714285714286" cy="-672.1428571428571" r="62" fill-opacity="0.0" stroke="black" stroke-width="2" />
<circle cx="798.8571428571429" cy="-537.7142857142858" r="77" fill-opacity="0.0" stroke="black" stroke-width="4" />
<circle cx="599.1428571428571" cy="-403.28571428571433" r="64" fill-opacity="0.0" stroke="black" stroke-width="3" />
<circle cx="399.42857142857133" cy="-268.8571428571429" r="115" fill-opacity="0.0" stroke="black" stroke-width="0.5" />
<circle cx="199.71428571428578" cy="-134.42857142857156" r="104" fill-opacity="0.0" stroke="black" stroke-width="2" />
<circle cx="1178.0" cy="611.0" r="113" fill-opacity="0.0" stroke="black" stroke-width="5" />
<circle cx="1009.7142857142858" cy="523.7142857142857" r="92" fill-opacity="0.0" stroke="black" stroke-width="1" />
<circle cx="841.4285714285714" cy="436.42857142857144" r="45" fill-opacity="0.0" stroke="black" stroke-width="2" />
<circle cx="673.1428571428571" cy="349.1428571428571" r="91" fill-opacity="0.0" stroke="black" stroke-width="1" />
<circle cx="504.8571428571429" cy="261.85714285714283" r="64" fill-opacity="0.0" stroke="black" stroke-width="5" />
<circle cx="336.57142857142867" cy="174.57142857142856" r="45" fill-opacity="0.0" stroke="black" stroke-width="4" />
<circle cx="168.28571428571433" cy="87.28571428571422" r="117" fill-opacity="0.0" stroke="black" stroke-width="3" />
<circle cx="-224.0" cy="1204.0" r="76" fill-opacity="0.0" stroke="black" stroke-width="2" />
<circle cx="-192.0" cy="1032.0" r="61" fill-opacity="0.0" stroke="black" stroke-width="2" />
<circle cx="-160.0" cy="860.0" r="41" fill-opacity="0.0" stroke="black" stroke-width="2" />
<circle cx="-128.0" cy="688.0" r="72" fill-opacity="0.0" stroke="black" stroke-width="2" />
<circle cx="-96.0" cy="516.0" r="81" fill-opacity="0.0" stroke="black" stroke-width="4" />
<circle cx="-64.0" cy="344.0" r="78" fill-opacity="0.0" stroke="black" stroke-width="1" />
<circle cx="-32.0" cy="172.0" r="106" fill-opacity="0.0" stroke="black" stroke-width="2" />
<circle cx="0.0" cy="-0.0" r="120" fill-opacity="0.0" stroke="black" stroke-width="2" />
<circle cx="-96.0" cy="-488.0" r="86" fill-opacity="0.0" stroke="black" stroke-width="5" />
<circle cx="-82.28571428571429" cy="-418.2857142857143" r="104" fill-opacity="0.0" stroke="black" stroke-width="2" />
<circle cx="-68.57142857142857" cy="-348.57142857142856" r="41" fill-opacity="0.0" stroke="black" stroke-width="1" />
<circle cx="-54.85714285714286" cy="-278.8571428571429" r="119" fill-opacity="0.0" stroke="black" stroke-width="5" />
<circle cx="-41.142857142857146" cy="-209.14285714285717" r="77" fill-opacity="0.0" stroke="black" stroke-width="5" />
<circle cx="-27.42857142857143" cy="-139.42857142857144" r="104" fill-opacity="0.0" stroke="black" stroke-width="2" />
<circle cx="-13.714285714285722" cy="-69.71428571428578" r="68" fill-opacity="0.0" stroke="black" stroke-width="5" />
<circle cx="0.0" cy="-0.0" r="55" fill-opacity="0.0" stroke="black" stroke-width="2" />
<circle cx="1266.0" cy="-1201.0" r="42" fill-opacity="0.0" stroke="black" stroke-width="2" />
<circle cx="1085.142857142857" cy="-1029.4285714285713" r="47" fill-opacity="0.0" stroke="black" stroke-width="2" />
<circle cx="904.2857142857142" cy="-857.8571428571429" r="56" fill-opacity="0.0" stroke="black" stroke-width="1" />
<circle cx="723.4285714285714" cy="-686.2857142857142" r="108" fill-opacity="0.0" stroke="black" stroke-width="2" />
<circle cx="542.5714285714286" cy="-514.7142857142857" r="78" fill-opacity="0.0" stroke="black" stroke-width="1" />
<circle cx="361.71428571428567" cy="-343.1428571428571" r="58" fill-opacity="0.0" stroke="black" stroke-width="3" />
<circle cx="180.8571428571429" cy="-171.57142857142844" r="62" fill-opacity="0.0" stroke="black" stroke-width="1" />
<circle cx="980.0" cy="30.0" r="117" fill-opacity="0.0" stroke="black" stroke-width="1" />
<circle cx="840.0" cy="25.714285714285715" r="54" fill-opacity="0.0" stroke="black" stroke-width="2" />
<circle cx="700.0" cy="21.42857142857143" r="109" fill-opacity="0.0" stroke="black" stroke-width="2" />
<circle cx="560.0" cy="17.142857142857142" r="74" fill-opacity="0.0" stroke="black" stroke-width="1" />
<circle cx="420.0" cy="12.857142857142858" r="44" fill-opacity="0.0" stroke="black" stroke-width="1" />
<circle cx="280.0" cy="8.571428571428573" r="113" fill-opacity="0.0" stroke="black" stroke-width="2" />
<circle cx="140.0" cy="4.285714285714285" r="66" fill-opacity="0.0" stroke="black" stroke-width="2" />
<circle cx="0.0" cy="-0.0" r="93" fill-opacity="0.0" stroke="black" stroke-width="5" />
</svg>