<?xml version="1.0" encoding="UTF-8"?>
<svg xmlns="http://www.w3.org/2000/svg" xmlns:xlink="http://www.w3.org/1999/xlink"
     width="800" height="800" viewBox="0 -800 800 800">
<defs>
</defs>
<circle cx="66" cy="-66" r="25" fill-opacity="0.0" stroke="#aad186" stroke-width="2" />
<circle cx="66" cy="-66" r="43" fill-opacity="0.0" stroke="#aad186" stroke-width="1" />
<circle cx="66" cy="-66" r="25" fill-opacity="0.0" stroke="#8ab7ff" stroke-width="2" />
<circle cx="66" cy="-66" r="51" fill-opacity="0.0" stroke="#e85d9e" stroke-width="1" />
<circle cx="66" cy="-66" r="50" fill-opacity="0.0" stroke="#e85d9e" stroke-width="2" />
<circle cx="66" cy="-66" r="13" fill-opacity="0.0" stroke="#ffffff" stroke-width="1" />
<circle cx="66" cy="-66" r="47" fill-opacity="0.0" stroke="#ffffff" stroke-width="1" />
<circle cx="66" cy="-198" r="37" fill-opacity="0.0" stroke="#8ab7ff" stroke-width="1" />
<circle cx="66" cy="-198" r="58" fill-opacity="0.0" stroke="#aad186" stroke-width="1" />
<circle cx="66" cy="-198" r="56" fill-opacity="0.0" stroke="#e85d9e" stroke-width="2" />
<circle cx="66" cy="-198" r="35" fill-opacity="0.0" stroke="#e85d9e" stroke-width="1" />
<circle cx="66" cy="-198" r="41" fill-opacity="0.0" stroke="#e85d9e" stroke-width="1" />
<circle cx="66" cy="-198" r="26" fill-opacity="0.0" stroke="#e85d9e" stroke-width="1" />
<circle cx="66" cy="-198" r="49" fill-opacity="0.0" stroke="#8ab7ff" stroke-width="1" />
<circle cx="66" cy="-330" r="50" fill-opacity="0.0" stroke="#aad186" stroke-width="1" />
<circle cx="66" cy="-330" r="48" fill-opacity="0.0" stroke="#aad186" stroke-width="1" />
<circle cx="66" cy="-330" r="21" fill-opacity="0.0" stroke="#8ab7ff" stroke-width="2" />
<circle cx="66" cy="-330" r="13" fill-opacity="0.0" stroke="#e85d9e" stroke-width="2" />
<circle cx="66" cy="-330" r="54" fill-opacity="0.0" stroke="#8ab7ff" stroke-width="1" />
<circle cx="66" cy="-330" r="54" fill-opacity="0.0" stroke="#e85d9e" stroke-width="3" />
<circle cx="66" cy="-330" r="18" fill-opacity="0.0" stroke="#8ab7ff" stroke-width="1" />
<circle cx="66" cy="-462" r="46" fill-opacity="0.0" stroke="#e85d9e" stroke-width="1" />
<circle cx="66" cy="-462" r="22" fill-opacity="0.0" stroke="#aad186" stroke-width="1" />
<circle cx="66" cy="-462" r="40" fill-opacity="0.0" stroke="#e85d9e" stroke-width="1" />
<circle cx="66" cy="-462" r="13" fill-opacity="0.0" stroke="#8ab7ff" stroke-width="1" />
<circle cx="66" cy="-462" r="42" fill-opacity="0.0" stroke="#e85d9e" stroke-width="3" />
<circle cx="66" cy="-462" r="20" fill-opacity="0.0" stroke="#e85d9e" stroke-width="1" />
<circle cx="66" cy="-462" r="17" fill-opacity="0.0" stroke="#aad186" stroke-width="1" />
<circle cx="66" cy="-594" r="29" fill-opacity="0.0" stroke="#aad186" stroke-width="1" />
<circle cx="66" cy="-594" r="27" fill-opacity="0.0" stroke="#8ab7ff" stroke-width="3" />
<circle cx="66" cy="-594" r="31" fill-opacity="0.0" stroke="#aad186" stroke-width="2" />
<circle cx="66" cy="-594" r="45" fill-opacity="0.0" stroke="#8ab7ff" stroke-width="1" />
<circle cx="66" cy="-594" r="44" fill-opacity="0.0" stroke="#aad186" stroke-width="1" />
<circle cx="66" cy="-594" r="24" fill-opacity="0.0" stroke="#e85d9e" stroke-width="1" />
<circle cx="66" cy="-594" r="55" fill-opacity="0.0" stroke="#aad186" stroke-width="1" />
<circle cx="66" cy="-726" r="32" fill-opacity="0.0" stroke="#8ab7ff" stroke-width="1" />
<circle cx="66" cy="-726" r="46" fill-opacity="0.0" stroke="#8ab7ff" stroke-width="3" />
<circle cx="66" cy="-726" r="49" fill-opacity="0.0" stroke="#aad186" stroke-width="3" />
<circle cx="66" cy="-726" r="49" fill-opacity="0.0" stroke="#e85d9e" stroke-width="1" />
<circle cx="66" cy="-726" r="16" fill-opacity="0.0" stroke="#8ab7ff" stroke-width="4" />
<circle cx="66" cy="-726" r="59" fill-opacity="0.0" stroke="#e85d9e" stroke-width="1" />
<circle cx="66" cy="-726" r="35" fill-opacity="0.0" stroke="#8ab7ff" stroke-width="2" />
<circle cx="198" cy="-66" r="39" fill-opacity="0.0" stroke="#e85d9e" stroke-width="2" />
<circle cx="198" cy="-66" r="15" fill-opacity="0.0" stroke="#8ab7ff" stroke-width="1" />
<circle cx="198" cy="-66" r="29" fill-opacity="0.0" stroke="#ffffff" stroke-width="1" />
<circle cx="198" cy="-66" r="40" fill-opacity="0.0" stroke="#8ab7ff" stroke-width="1" />
<circle cx="198" cy="-66" r="14" fill-opacity="0.0" stroke="#e85d9e" stroke-width="3" />
<circle cx="198" cy="-66" r="20" fill-opacity="0.0" stroke="#e85d9e" stroke-width="4" />
<circle cx="198" cy="-66" r="16" fill-opacity="0.0" stroke="#aad186" stroke-width="2" />
<circle cx="198" cy="-198" r="42" fill-opacity="0.0" stroke="#aad186" stroke-width="5" />
<circle cx="198" cy="-198" r="18" fill-opacity="0.0" stroke="#e85d9e" stroke-width="1" />
<circle cx="198" cy="-198" r="31" fill-opacity="0.0" stroke="#aad186" stroke-width="3" />
<circle cx="198" cy="-198" r="15" fill-opacity="0.0" stroke="#aad186" stroke-width="1" />
<circle cx="198" cy="-198" r="53" fill-opacity="0.0" stroke="#ffffff" stroke-width="3" />
<circle cx="198" cy="-198" r="49" fill-opacity="0.0" stroke="#aad186" stroke-width="1" />
<circle cx="198" cy="-198" r="47" fill-opacity="0.0" stroke="#8ab7ff" stroke-width="1" />
<circle cx="198" cy="-330" r="59" fill-opacity="0.0" stroke="#ffffff" stroke-width="3" />
<circle cx="198" cy="-330" r="37" fill-opacity="0.0" stroke="#8ab7ff" stroke-width="2" />
<circle cx="198" cy="-330" r="16" fill-opacity="0.0" stroke="#aad186" stroke-width="4" />
<circle cx="198" cy="-330" r="57" fill-opacity="0.0" stroke="#e85d9e" stroke-width="5" />
<circle cx="198" cy="-330" r="37" fill-opacity="0.0" stroke="#8ab7ff" stroke-width="1" />
<circle cx="198" cy="-330" r="23" fill-opacity="0.0" stroke="#aad186" stroke-width="2" />
<circle cx="198" cy="-330" r="55" fill-opacity="0.0" stroke="#8ab7ff" stroke-width="3" />
<circle cx="198" cy="-462" r="47" fill-opacity="0.0" stroke="#8ab7ff" stroke-width="2" />
<circle cx="198" cy="-462" r="20" fill-opacity="0.0" stroke="#aad186" stroke-width="5" />
<circle cx="198" cy="-462" r="16" fill-opacity="0.0" stroke="#e85d9e" stroke-width="2" />
<circle cx="198" cy="-462" r="21" fill-opacity="0.0" stroke="#e85d9e" stroke-width="2" />
<circle cx="198" cy="-462" r="59" fill-opacity="0.0" stroke="#aad186" stroke-width="1" />
<circle cx="198" cy="-462" r="59" fill-opacity="0.0" stroke="#8ab7ff" stroke-width="3" />
<circle cx="198" cy="-462" r="38" fill-opacity="0.0" stroke="#8ab7ff" stroke-width="3" />
<circle cx="198" cy="-594" r="50" fill-opacity="0.0" stroke="#aad186" stroke-width="2" />
<circle cx="198" cy="-594" r="34" fill-opacity="0.0" stroke="#e85d9e" stroke-width="1" />
<circle cx="198" cy="-594" r="49" fill-opacity="0.0" stroke="#e85d9e" stroke-width="5" />
<circle cx="198" cy="-594" r="41" fill-opacity="0.0" stroke="#8ab7ff" stroke-width="2" />
<circle cx="198" cy="-594" r="14" fill-opacity="0.0" stroke="#8ab7ff" stroke-width="1" />
<circle cx="198" cy="-594" r="35" fill-opacity="0.0" stroke="#e85d9e" stroke-width="1" />
<circle cx="198" cy="-594" r="26" fill-opacity="0.0" stroke="#e85d9e" stroke-width="1" />
<circle cx="198" cy="-726" r="45" fill-opacity="0.0" stroke="#ffffff" stroke-width="5" />
<circle cx="198" cy="-726" r="59" fill-opacity="0.0" stroke="#aad186" stroke-width="5" />
<circle cx="198" cy="-726" r="32" fill-opacity="0.0" stroke="#8ab7ff" stroke-width="1" />
<circle cx="198" cy="-726" r="24" fill-opacity="0.0" stroke="#e85d9e" stroke-width="1" />
<circle cx="198" cy="-726" r="41" fill-opacity="0.0" stroke="#8ab7ff" stroke-width="5" />
<circle cx="198" cy="-726" r="14" fill-opacity="0.0" stroke="#aad186" stroke-width="3" />
<circle cx="198" cy="-726" r="19" fill-opacity="0.0" stroke="#8ab7ff" stroke-width="4" />
<circle cx="330" cy="-66" r="54" fill-opacity="0.0" stroke="#e85d9e" stroke-width="1" />
<circle cx="330" cy="-66" r="17" fill-opacity="0.0" stroke="#e85d9e" stroke-width="1" />
<circle cx="330" cy="-66" r="53" fill-opacity="0.0" stroke="#ffffff" stroke-width="3" />
<circle cx="330" cy="-66" r="23" fill-opacity="0.0" stroke="#e85d9e" stroke-width="2" />
<circle cx="330" cy="-66" r="13" fill-opacity="0.0" stroke="#e85d9e" stroke-width="5" />
<circle cx="330" cy="-66" r="57" fill-opacity="0.0" stroke="#8ab7ff" stroke-width="1" />
<circle cx="330" cy="-66" r="28" fill-opacity="0.0" stroke="#ffffff" stroke-width="1" />
<circle cx="330" cy="-198" r="45" fill-opacity="0.0" stroke="#e85d9e" stroke-width="1" />
<circle cx="330" cy="-198" r="27" fill-opacity="0.0" stroke="#ffffff" stroke-width="3" />
<circle cx="330" cy="-198" r="23" fill-opacity="0.0" stroke="#aad186" stroke-width="2" />
<circle cx="330" cy="-198" r="50" fill-opacity="0.0" stroke="#aad186" stroke-width="1" />
<circle cx="330" cy="-198" r="56" fill-opacity="0.0" stroke="#aad186" stroke-width="1" />
<circle cx="330" cy="-198" r="39" fill-opacity="0.0" stroke="#e85d9e" stroke-width="1" />
<circle cx="330" cy="-198" r="29" fill-opacity="0.0" stroke="#ffffff" stroke-width="1" />
<circle cx="330" cy="-330" r="15" fill-opacity="0.0" stroke="#e85d9e" stroke-width="1" />
<circle cx="330" cy="-330" r="48" fill-opacity="0.0" stroke="#aad186" stroke-width="3" />
<circle cx="330" cy="-330" r="44" fill-opacity="0.0" stroke="#8ab7ff" stroke-width="4" />
<circle cx="330" cy="-330" r="18" fill-opacity="0.0" stroke="#ffffff" stroke-width="1" />
<circle cx="330" cy="-330" r="49" fill-opacity="0.0" stroke="#aad186" stroke-width="2" />
<circle cx="330" cy="-330" r="40" fill-opacity="0.0" stroke="#ffffff" stroke-width="1" />
<circle cx="330" cy="-330" r="46" fill-opacity="0.0" stroke="#8ab7ff" stroke-width="1" />
<circle cx="330" cy="-462" r="29" fill-opacity="0.0" stroke="#ffffff" stroke-width="1" />
<circle cx="330" cy="-462" r="15" fill-opacity="0.0" stroke="#e85d9e" stroke-width="1" />
<circle cx="330" cy="-462" r="51" fill-opacity="0.0" stroke="#e85d9e" stroke-width="3" />
<circle cx="330" cy="-462" r="34" fill-opacity="0.0" stroke="#ffffff" stroke-width="1" />
<circle cx="330" cy="-462" r="33" fill-opacity="0.0" stroke="#aad186" stroke-width="1" />
<circle cx="330" cy="-462" r="33" fill-opacity="0.0" stroke="#ffffff" stroke-width="4" />
<circle cx="330" cy="-462" r="17" fill-opacity="0.0" stroke="#ffffff" stroke-width="1" />
<circle cx="330" cy="-594" r="28" fill-opacity="0.0" stroke="#e85d9e" stroke-width="1" />
<circle cx="330" cy="-594" r="31" fill-opacity="0.0" stroke="#e85d9e" stroke-width="3" />
<circle cx="330" cy="-594" r="35" fill-opacity="0.0" stroke="#8ab7ff" stroke-width="2" />
<circle cx="330" cy="-594" r="42" fill-opacity="0.0" stroke="#aad186" stroke-width="1" />
<circle cx="330" cy="-594" r="57" fill-opacity="0.0" stroke="#aad186" stroke-width="2" />
<circle cx="330" cy="-594" r="33" fill-opacity="0.0" stroke="#e85d9e" stroke-width="3" />
<circle cx="330" cy="-594" r="41" fill-opacity="0.0" stroke="#e85d9e" stroke-width="4" />
<circle cx="330" cy="-726" r="24" fill-opacity="0.0" stroke="#ffffff" stroke-width="1" />
<circle cx="330" cy="-726" r="50" fill-opacity="0.0" stroke="#8ab7ff" stroke-width="3" />
<circle cx="330" cy="-726" r="48" fill-opacity="0.0" stroke="#aad186" stroke-width="1" />
<circle cx="330" cy="-726" r="20" fill-opacity="0.0" stroke="#aad186" stroke-width="1" />
<circle cx="330" cy="-726" r="52" fill-opacity="0.0" stroke="#ffffff" stroke-width="2" />
<circle cx="330" cy="-726" r="59" fill-opacity="0.0" stroke="#e85d9e" stroke-width="1" />
<circle cx="330" cy="-726" r="20" fill-opacity="0.0" stroke="#8ab7ff" stroke-width="1" />
<circle cx="462" cy="-66" r="17" fill-opacity="0.0" stroke="#8ab7ff" stroke-width="1" />
<circle cx="462" cy="-66" r="58" fill-opacity="0.0" stroke="#e85d9e" stroke-width="1" />
<circle cx="462" cy="-66" r="34" fill-opacity="0.0" stroke="#8ab7ff" stroke-width="2" />
<circle cx="462" cy="-66" r="32" fill-opacity="0.0" stroke="#8ab7ff" stroke-width="1" />
<circle cx="462" cy="-66" r="41" fill-opacity="0.0" stroke="#aad186" stroke-width="1" />
<circle cx="462" cy="-66" r="46" fill-opacity="0.0" stroke="#8ab7ff" stroke-width="3" />
<circle cx="462" cy="-66" r="45" fill-opacity="0.0" stroke="#aad186" stroke-width="1" />
<circle cx="462" cy="-198" r="18" fill-opacity="0.0" stroke="#ffffff" stroke-width="1" />
<circle cx="462" cy="-198" r="31" fill-opacity="0.0" stroke="#aad186" stroke-width="2" />
<circle cx="462" cy="-198" r="49" fill-opacity="0.0" stroke="#e85d9e" stroke-width="2" />
<circle cx="462" cy="-198" r="51" fill-opacity="0.0" stroke="#8ab7ff" stroke-width="3" />
<circle cx="462" cy="-198" r="27" fill-opacity="0.0" stroke="#e85d9e" stroke-width="5" />
<circle cx="462" cy="-198" r="55" fill-opacity="0.0" stroke="#8ab7ff" stroke-width="1" />
<circle cx="462" cy="-198" r="14" fill-opacity="0.0" stroke="#ffffff" stroke-width="1" />
<circle cx="462" cy="-330" r="27" fill-opacity="0.0" stroke="#e85d9e" stroke-width="1" />
<circle cx="462" cy="-330" r="50" fill-opacity="0.0" stroke="#aad186" stroke-width="1" />
<circle cx="462" cy="-330" r="52" fill-opacity="0.0" stroke="#ffffff" stroke-width="1" />
<circle cx="462" cy="-330" r="19" fill-opacity="0.0" stroke="#e85d9e" stroke-width="5" />
<circle cx="462" cy="-330" r="38" fill-opacity="0.0" stroke="#8ab7ff" stroke-width="1" />
<circle cx="462" cy="-330" r="15" fill-opacity="0.0" stroke="#ffffff" stroke-width="2" />
<circle cx="462" cy="-330" r="37" fill-opacity="0.0" stroke="#e85d9e" stroke-width="2" />
<circle cx="462" cy="-462" r="21" fill-opacity="0.0" stroke="#8ab7ff" stroke-width="1" />
<circle cx="462" cy="-462" r="37" fill-opacity="0.0" stroke="#ffffff" stroke-width="5" />
<circle cx="462" cy="-462" r="28" fill-opacity="0.0" stroke="#8ab7ff" stroke-width="3" />
<circle cx="462" cy="-462" r="13" fill-opacity="0.0" stroke="#e85d9e" stroke-width="2" />
<circle cx="462" cy="-462" r="47" fill-opacity="0.0" stroke="#e85d9e" stroke-width="2" />
<circle cx="462" cy="-462" r="24" fill-opacity="0.0" stroke="#8ab7ff" stroke-width="2" />
<circle cx="462" cy="-462" r="49" fill-opacity="0.0" stroke="#8ab7ff" stroke-width="1" />
<circle cx="462" cy="-594" r="39" fill-opacity="0.0" stroke="#ffffff" stroke-width="1" />
<circle cx="462" cy="-594" r="20" fill-opacity="0.0" stroke="#aad186" stroke-width="1" />
<circle cx="462" cy="-594" r="33" fill-opacity="0.0" stroke="#e85d9e" stroke-width="1" />
<circle cx="462" cy="-594" r="50" fill-opacity="0.0" stroke="#8ab7ff" stroke-width="2" />
<circle cx="462" cy="-594" r="14" fill-opacity="0.0" stroke="#aad186" stroke-width="2" />
<circle cx="462" cy="-594" r="18" fill-opacity="0.0" stroke="#8ab7ff" stroke-width="5" />
<circle cx="462" cy="-594" r="16" fill-opacity="0.0" stroke="#8ab7ff" stroke-width="1" />
<circle cx="462" cy="-726" r="43" fill-opacity="0.0" stroke="#e85d9e" stroke-width="1" />
<circle cx="462" cy="-726" r="25" fill-opacity="0.0" stroke="#aad186" stroke-width="1" />
<circle cx="462" cy="-726" r="45" fill-opacity="0.0" stroke="#8ab7ff" stroke-width="1" />
<circle cx="462" cy="-726" r="18" fill-opacity="0.0" stroke="#aad186" stroke-width="3" />
<circle cx="462" cy="-726" r="15" fill-opacity="0.0" stroke="#aad186" stroke-width="2" />
<circle cx="462" cy="-726" r="27" fill-opacity="0.0" stroke="#aad186" stroke-width="2" />
<circle cx="462" cy="-726" r="47" fill-opacity="0.0" stroke="#ffffff" stroke-width="1" />
<circle cx="594" cy="-66" r="45" fill-opacity="0.0" stroke="#e85d9e" stroke-width="4" />
<circle cx="594" cy="-66" r="41" fill-opacity="0.0" stroke="#aad186" stroke-width="2" />
<circle cx="594" cy="-66" r="32" fill-opacity="0.0" stroke="#8ab7ff" stroke-width="1" />
<circle cx="594" cy="-66" r="49" fill-opacity="0.0" stroke="#8ab7ff" stroke-width="4" />
<circle cx="594" cy="-66" r="21" fill-opacity="0.0" stroke="#8ab7ff" stroke-width="1" />
<circle cx="594" cy="-66" r="29" fill-opacity="0.0" stroke="#aad186" stroke-width="1" />
<circle cx="594" cy="-66" r="56" fill-opacity="0.0" stroke="#8ab7ff" stroke-width="2" />
<circle cx="594" cy="-198" r="24" fill-opacity="0.0" stroke="#aad186" stroke-width="1" />
<circle cx="594" cy="-198" r="26" fill-opacity="0.0" stroke="#ffffff" stroke-width="1" />
<circle cx="594" cy="-198" r="16" fill-opacity="0.0" stroke="#8ab7ff" stroke-width="2" />
<circle cx="594" cy="-198" r="57" fill-opacity="0.0" stroke="#e85d9e" stroke-width="1" />
<circle cx="594" cy="-198" r="27" fill-opacity="0.0" stroke="#aad186" stroke-width="3" />
<circle cx="594" cy="-198" r="47" fill-opacity="0.0" stroke="#8ab7ff" stroke-width="1" />
<circle cx="594" cy="-198" r="14" fill-opacity="0.0" stroke="#aad186" stroke-width="1" />
<circle cx="594" cy="-330" r="55" fill-opacity="0.0" stroke="#aad186" stroke-width="5" />
<circle cx="594" cy="-330" r="32" fill-opacity="0.0" stroke="#e85d9e" stroke-width="2" />
<circle cx="594" cy="-330" r="37" fill-opacity="0.0" stroke="#e85d9e" stroke-width="5" />
<circle cx="594" cy="-330" r="47" fill-opacity="0.0" stroke="#aad186" stroke-width="1" />
<circle cx="594" cy="-330" r="57" fill-opacity="0.0" stroke="#e85d9e" stroke-width="1" />
<circle cx="594" cy="-330" r="40" fill-opacity="0.0" stroke="#8ab7ff" stroke-width="1" />
<circle cx="594" cy="-330" r="18" fill-opacity="0.0" stroke="#aad186" stroke-width="1" />
<circle cx="594" cy="-462" r="16" fill-opacity="0.0" stroke="#aad186" stroke-width="1" />
<circle cx="594" cy="-462" r="50" fill-opacity="0.0" stroke="#e85d9e" stroke-width="1" />
<circle cx="594" cy="-462" r="31" fill-opacity="0.0" stroke="#8ab7ff" stroke-width="4" />
<circle cx="594" cy="-462" r="37" fill-opacity="0.0" stroke="#8ab7ff" stroke-width="1" />
<circle cx="594" cy="-462" r="29" fill-opacity="0.0" stroke="#aad186" stroke-width="2" />
<circle cx="594" cy="-462" r="25" fill-opacity="0.0" stroke="#aad186" stroke-width="1" />
<circle cx="594" cy="-462" r="33" fill-opacity="0.0" stroke="#ffffff" stroke-width="1" />
<circle cx="594" cy="-594" r="35" fill-opacity="0.0" stroke="#e85d9e" stroke-width="1" />
<circle cx="594" cy="-594" r="37" fill-opacity="0.0" stroke="#e85d9e" stroke-width="1" />
<circle cx="594" cy="-594" r="28" fill-opacity="0.0" stroke="#e85d9e" stroke-width="2" />
<circle cx="594" cy="-594" r="46" fill-opacity="0.0" stroke="#e85d9e" stroke-width="1" />
<circle cx="594" cy="-594" r="14" fill-opacity="0.0" stroke="#e85d9e" stroke-width="1" />
<circle cx="594" cy="-594" r="50" fill-opacity="0.0" stroke="#aad186" stroke-width="2" />
<circle cx="594" cy="-594" r="33" fill-opacity="0.0" stroke="#e85d9e" stroke-width="2" />
<circle cx="594" cy="-726" r="26" fill-opacity="0.0" stroke="#e85d9e" stroke-width="1" />
<circle cx="594" cy="-726" r="13" fill-opacity="0.0" stroke="#e85d9e" stroke-width="1" />
<circle cx="594" cy="-726" r="41" fill-opacity="0.0" stroke="#e85d9e" stroke-width="1" />
<circle cx="594" cy="-726" r="18" fill-opacity="0.0" stroke="#ffffff" stroke-width="2" />
<circle cx="594" cy="-726" r="15" fill-opacity="0.0" stroke="#8ab7ff" stroke-width="3" />
<circle cx="594" cy="-726" r="28" fill-opacity="0.0" stroke="#aad186" stroke-width="1" />
<circle cx="594" cy="-726" r="27" fill-opacity="0.0" stroke="#e85d9e" stroke-width="1" />
<circle cx="726" cy="-66" r="49" fill-opacity="0.0" stroke="#8ab7ff" stroke-width="2" />
<circle cx="726" cy="-66" r="31" fill-opacity="0.0" stroke="#aad186" stroke-width="1" />
<circle cx="726" cy="-66" r="58" fill-opacity="0.0" stroke="#e85d9e" stroke-width="1" />
<circle cx="726" cy="-66" r="49" fill-opacity="0.0" stroke="#aad186" stroke-width="2" />
<circle cx="726" cy="-66" r="43" fill-opacity="0.0" stroke="#aad186" stroke-width="1" />
<circle cx="726" cy="-66" r="26" fill-opacity="0.0" stroke="#e85d9e" stroke-width="3" />
<circle cx="726" cy="-66" r="54" fill-opacity="0.0" stroke="#aad186" stroke-width="2" />
<circle cx="726" cy="-198" r="47" fill-opacity="0.0" stroke="#e85d9e" stroke-width="1" />
<circle cx="726" cy="-198" r="37" fill-opacity="0.0" stroke="#e85d9e" stroke-width="1" />
<circle cx="726" cy="-198" r="19" fill-opacity="0.0" stroke="#8ab7ff" stroke-width="1" />
<circle cx="726" cy="-198" r="15" fill-opacity="0.0" stroke="#e85d9e" stroke-width="3" />
<circle cx="726" cy="-198" r="43" fill-opacity="0.0" stroke="#8ab7ff" stroke-width="1" />
<circle cx="726" cy="-198" r="27" fill-opacity="0.0" stroke="#e85d9e" stroke-width="1" />
<circle cx="726" cy="-198" r="15" fill-opacity="0.0" stroke="#8ab7ff" stroke-width="1" />
<circle cx="726" cy="-330" r="49" fill-opacity="0.0" stroke="#e85d9e" stroke-width="1" />
<circle cx="726" cy="-330" r="51" fill-opacity="0.0" stroke="#e85d9e" stroke-width="5" />
<circle cx="726" cy="-330" r="54" fill-opacity="0.0" stroke="#e85d9e" stroke-width="1" />
<circle cx="726" cy="-330" r="32" fill-opacity="0.0" stroke="#e85d9e" stroke-width="2" />
<circle cx="726" cy="-330" r="23" fill-opacity="0.0" stroke="#8ab7ff" stroke-width="1" />
<circle cx="726" cy="-330" r="26" fill-opacity="0.0" stroke="#ffffff" stroke-width="1" />
<circle cx="726" cy="-330" r="22" fill-opacity="0.0" stroke="#e85d9e" stroke-width="2" />
<circle cx="726" cy="-462" r="47" fill-opacity="0.0" stroke="#ffffff" stroke-width="5" />
<circle cx="726" cy="-462" r="23" fill-opacity="0.0" stroke="#8ab7ff" stroke-width="5" />
<circle cx="726" cy="-462" r="19" fill-opacity="0.0" stroke="#aad186" stroke-width="2" />
<circle cx="726" cy="-462" r="42" fill-opacity="0.0" stroke="#8ab7ff" stroke-width="1" />
<circle cx="726" cy="-462" r="55" fill-opacity="0.0" stroke="#8ab7ff" stroke-width="2" />
<circle cx="726" cy="-462" r="26" fill-opacity="0.0" stroke="#e85d9e" stroke-width="1" />
<circle cx="726" cy="-462" r="38" fill-opacity="0.0" stroke="#8ab7ff" stroke-width="1" />
<circle cx="726" cy="-594" r="43" fill-opacity="0.0" stroke="#aad186" stroke-width="2" />
<circle cx="726" cy="-594" r="29" fill-opacity="0.0" stroke="#aad186" stroke-width="2" />
<circle cx="726" cy="-594" r="14" fill-opacity="0.0" stroke="#ffffff" stroke-width="2" />
<circle cx="726" cy="-594" r="21" fill-opacity="0.0" stroke="#8ab7ff" stroke-width="5" />
<circle cx="726" cy="-594" r="20" fill-opacity="0.0" stroke="#aad186" stroke-width="1" />
<circle cx="726" cy="-594" r="52" fill-opacity="0.0" stroke="#ffffff" stroke-width="1" />
<circle cx="726" cy="-594" r="32" fill-opacity="0.0" stroke="#8ab7ff" stroke-width="2" />
<circle cx="726" cy="-726" r="16" fill-opacity="0.0" stroke="#e85d9e" stroke-width="1" />
<circle cx="726" cy="-726" r="44" fill-opacity="0.0" stroke="#8ab7ff" stroke-width="4" />
<circle cx="726" cy="-726" r="16" fill-opacity="0.0" stroke="#8ab7ff" stroke-width="3" />
<circle cx="726" cy="-726" r="28" fill-opacity="0.0" stroke="#ffffff" stroke-width="3" />
<circle cx="726" cy="-726" r="18" fill-opacity="0.0" stroke="#aad186" stroke-width="1" />
<circle cx="726" cy="-726" r="29" fill-opacity="0.0" stroke="#aad186" stroke-width="1" />
<circle cx="726" cy="-726" r="37" fill-opacity="0.0" stroke="#8ab7ff" stroke-width="1" />
</svg>