<?xml version="1.0" encoding="UTF-8"?>
<svg xmlns="http://www.w3.org/2000/svg" xmlns:xlink="http://www.w3.org/1999/xlink"
     width="800" height="800" viewBox="0 -800 800 800">
<defs>
</defs>
<path d="M20,-20 L40.0,-40.0" stroke-width="3" stroke="black" />
<path d="M20,-60 L220.0,140.0" stroke-width="6" stroke="black" />
<path d="M20,-100 L40.0,-120.0" stroke-width="3" stroke="black" />
<path d="M20,-140 L0.0,-160.0" stroke-width="6" stroke="black" />
<path d="M20,-180 L-40.0,-120.0" stroke-width="2" stroke="black" />
<path d="M20,-220 L40.0,-240.0" stroke-width="3" stroke="black" />
<path d="M20,-260 L-20.0,-220.0" stroke-width="3" stroke="black" />
<path d="M20,-300 L0.0,-320.0" stroke-width="2" stroke="black" />
<path d="M20,-340 L100.0,-260.0" stroke-width="3" stroke="black" />
<path d="M20,-380 L220.0,-580.0" stroke-width="6" stroke="black" />
<path d="M20,-420 L40.0,-400.0" stroke-width="3" stroke="black" />
<path d="M20,-460 L100.0,-540.0" stroke-width="1" stroke="black" />
<path d="M20,-500 L-180.0,-300.0" stroke-width="2" stroke="black" />
<path d="M20,-540 L-60.0,-460.0" stroke-width="1" stroke="black" />
<path d="M20,-580 L0.0,-560.0" stroke-width="3" stroke="black" />
<path d="M20,-620 L40.0,-600.0" stroke-width="3" stroke="black" />
<path d="M20,-660 L40.0,-680.0" stroke-width="3" stroke="black" />
<path d="M20,-700 L-20.0,-740.0" stroke-width="2" stroke="black" />
<path d="M20,-740 L0.0,-760.0" stroke-width="2" stroke="black" />
<path d="M20,-780 L60.0,-820.0" stroke-width="6" stroke="black" />
<path d="M60,-20 L40.0,-40.0" stroke-width="3" stroke="black" />
<path d="M60,-60 L40.0,-80.0" stroke-width="3" stroke="black" />
<path d="M60,-100 L260.0,100.0" stroke-width="2" stroke="black" />
<path d="M60,-140 L0.0,-80.0" stroke-width="3" stroke="black" />
<path d="M60,-180 L-20.0,-260.0" stroke-width="3" stroke="black" />
<path d="M60,-220 L260.0,-420.0" stroke-width="2" stroke="black" />
<path d="M60,-260 L40.0,-240.0" stroke-width="2" stroke="black" />
<path d="M60,-300 L20.0,-340.0" stroke-width="1" stroke="black" />
<path d="M60,-340 L-140.0,-540.0" stroke-width="10" stroke="black" />
<path d="M60,-380 L80.0,-360.0" stroke-width="6" stroke="black" />
<path d="M60,-420 L40.0,-440.0" stroke-width="3" stroke="black" />
<path d="M60,-460 L80.0,-440.0" stroke-width="6" stroke="black" />
<path d="M60,-500 L20.0,-460.0" stroke-width="3" stroke="black" />
<path d="M60,-540 L100.0,-500.0" stroke-width="2" stroke="black" />
<path d="M60,-580 L100.0,-540.0" stroke-width="1" stroke="black" />
<path d="M60,-620 L80.0,-640.0" stroke-width="6" stroke="black" />
<path d="M60,-660 L100.0,-700.0" stroke-width="2" stroke="black" />
<path d="M60,-700 L120.0,-640.0" stroke-width="3" stroke="black" />
<path d="M60,-740 L80.0,-760.0" stroke-width="2" stroke="black" />
<path d="M60,-780 L40.0,-760.0" stroke-width="2" stroke="black" />
<path d="M100,-20 L180.0,-100.0" stroke-width="6" stroke="black" />
<path d="M100,-60 L40.0,-0.0" stroke-width="2" stroke="black" />
<path d="M100,-100 L60.0,-140.0" stroke-width="2" stroke="black" />
<path d="M100,-140 L80.0,-120.0" stroke-width="1" stroke="black" />
<path d="M100,-180 L80.0,-160.0" stroke-width="3" stroke="black" />
<path d="M100,-220 L120.0,-240.0" stroke-width="1" stroke="black" />
<path d="M100,-260 L120.0,-280.0" stroke-width="1" stroke="black" />
<path d="M100,-300 L60.0,-340.0" stroke-width="1" stroke="black" />
<path d="M100,-340 L80.0,-360.0" stroke-width="1" stroke="black" />
<path d="M100,-380 L160.0,-440.0" stroke-width="10" stroke="black" />
<path d="M100,-420 L80.0,-400.0" stroke-width="1" stroke="black" />
<path d="M100,-460 L80.0,-440.0" stroke-width="6" stroke="black" />
<path d="M100,-500 L180.0,-420.0" stroke-width="6" stroke="black" />
<path d="M100,-540 L300.0,-340.0" stroke-width="2" stroke="black" />
<path d="M100,-580 L300.0,-780.0" stroke-width="1" stroke="black" />
<path d="M100,-620 L180.0,-700.0" stroke-width="3" stroke="black" />
<path d="M100,-660 L80.0,-640.0" stroke-width="2" stroke="black" />
<path d="M100,-700 L80.0,-680.0" stroke-width="2" stroke="black" />
<path d="M100,-740 L120.0,-720.0" stroke-width="6" stroke="black" />
<path d="M100,-780 L60.0,-820.0" stroke-width="1" stroke="black" />
<path d="M140,-20 L100.0,20.0" stroke-width="10" stroke="black" />
<path d="M140,-60 L120.0,-80.0" stroke-width="1" stroke="black" />
<path d="M140,-100 L100.0,-60.0" stroke-width="1" stroke="black" />
<path d="M140,-140 L160.0,-160.0" stroke-width="1" stroke="black" />
<path d="M140,-180 L160.0,-200.0" stroke-width="2" stroke="black" />
<path d="M140,-220 L120.0,-200.0" stroke-width="1" stroke="black" />
<path d="M140,-260 L60.0,-180.0" stroke-width="10" stroke="black" />
<path d="M140,-300 L120.0,-280.0" stroke-width="2" stroke="black" />
<path d="M140,-340 L120.0,-320.0" stroke-width="2" stroke="black" />
<path d="M140,-380 L-60.0,-580.0" stroke-width="10" stroke="black" />
<path d="M140,-420 L160.0,-400.0" stroke-width="6" stroke="black" />
<path d="M140,-460 L120.0,-480.0" stroke-width="1" stroke="black" />
<path d="M140,-500 L60.0,-420.0" stroke-width="2" stroke="black" />
<path d="M140,-540 L120.0,-520.0" stroke-width="10" stroke="black" />
<path d="M140,-580 L200.0,-520.0" stroke-width="1" stroke="black" />
<path d="M140,-620 L80.0,-680.0" stroke-width="1" stroke="black" />
<path d="M140,-660 L220.0,-740.0" stroke-width="1" stroke="black" />
<path d="M140,-700 L160.0,-680.0" stroke-width="6" stroke="black" />
<path d="M140,-740 L-60.0,-540.0" stroke-width="10" stroke="black" />
<path d="M140,-780 L200.0,-840.0" stroke-width="10" stroke="black" />
<path d="M180,-20 L-20.0,180.0" stroke-width="2" stroke="black" />
<path d="M180,-60 L100.0,-140.0" stroke-width="1" stroke="black" />
<path d="M180,-100 L240.0,-160.0" stroke-width="1" stroke="black" />
<path d="M180,-140 L200.0,-120.0" stroke-width="3" stroke="black" />
<path d="M180,-180 L140.0,-140.0" stroke-width="3" stroke="black" />
<path d="M180,-220 L120.0,-280.0" stroke-width="2" stroke="black" />
<path d="M180,-260 L220.0,-300.0" stroke-width="10" stroke="black" />
<path d="M180,-300 L260.0,-380.0" stroke-width="6" stroke="black" />
<path d="M180,-340 L160.0,-360.0" stroke-width="6" stroke="black" />
<path d="M180,-380 L240.0,-320.0" stroke-width="10" stroke="black" />
<path d="M180,-420 L100.0,-340.0" stroke-width="3" stroke="black" />
<path d="M180,-460 L160.0,-440.0" stroke-width="1" stroke="black" />
<path d="M180,-500 L240.0,-560.0" stroke-width="2" stroke="black" />
<path d="M180,-540 L220.0,-500.0" stroke-width="1" stroke="black" />
<path d="M180,-580 L140.0,-540.0" stroke-width="2" stroke="black" />
<path d="M180,-620 L120.0,-680.0" stroke-width="3" stroke="black" />
<path d="M180,-660 L380.0,-460.0" stroke-width="6" stroke="black" />
<path d="M180,-700 L200.0,-720.0" stroke-width="2" stroke="black" />
<path d="M180,-740 L260.0,-660.0" stroke-width="2" stroke="black" />
<path d="M180,-780 L220.0,-820.0" stroke-width="3" stroke="black" />
<path d="M220,-20 L180.0,20.0" stroke-width="6" stroke="black" />
<path d="M220,-60 L260.0,-20.0" stroke-width="3" stroke="black" />
<path d="M220,-100 L260.0,-60.0" stroke-width="3" stroke="black" />
<path d="M220,-140 L260.0,-100.0" stroke-width="6" stroke="black" />
<path d="M220,-180 L240.0,-160.0" stroke-width="10" stroke="black" />
<path d="M220,-220 L260.0,-260.0" stroke-width="10" stroke="black" />
<path d="M220,-260 L160.0,-320.0" stroke-width="10" stroke="black" />
<path d="M220,-300 L200.0,-320.0" stroke-width="2" stroke="black" />
<path d="M220,-340 L140.0,-260.0" stroke-width="2" stroke="black" />
<path d="M220,-380 L20.0,-580.0" stroke-width="1" stroke="black" />
<path d="M220,-420 L140.0,-500.0" stroke-width="2" stroke="black" />
<path d="M220,-460 L420.0,-660.0" stroke-width="3" stroke="black" />
<path d="M220,-500 L240.0,-480.0" stroke-width="1" stroke="black" />
<path d="M220,-540 L240.0,-520.0" stroke-width="2" stroke="black" />
<path d="M220,-580 L160.0,-520.0" stroke-width="2" stroke="black" />
<path d="M220,-620 L300.0,-700.0" stroke-width="3" stroke="black" />
<path d="M220,-660 L200.0,-640.0" stroke-width="3" stroke="black" />
<path d="M220,-700 L180.0,-660.0" stroke-width="3" stroke="black" />
<path d="M220,-740 L200.0,-760.0" stroke-width="6" stroke="black" />
<path d="M220,-780 L160.0,-840.0" stroke-width="2" stroke="black" />
<path d="M260,-20 L220.0,-60.0" stroke-width="3" stroke="black" />
<path d="M260,-60 L60.0,140.0" stroke-width="2" stroke="black" />
<path d="M260,-100 L280.0,-80.0" stroke-width="10" stroke="black" />
<path d="M260,-140 L200.0,-80.0" stroke-width="2" stroke="black" />
<path d="M260,-180 L220.0,-140.0" stroke-width="3" stroke="black" />
<path d="M260,-220 L280.0,-240.0" stroke-width="2" stroke="black" />
<path d="M260,-260 L220.0,-220.0" stroke-width="6" stroke="black" />
<path d="M260,-300 L200.0,-360.0" stroke-width="6" stroke="black" />
<path d="M260,-340 L300.0,-300.0" stroke-width="2" stroke="black" />
<path d="M260,-380 L300.0,-420.0" stroke-width="3" stroke="black" />
<path d="M260,-420 L280.0,-440.0" stroke-width="6" stroke="black" />
<path d="M260,-460 L280.0,-480.0" stroke-width="6" stroke="black" />
<path d="M260,-500 L240.0,-520.0" stroke-width="2" stroke="black" />
<path d="M260,-540 L280.0,-560.0" stroke-width="1" stroke="black" />
<path d="M260,-580 L200.0,-520.0" stroke-width="1" stroke="black" />
<path d="M260,-620 L280.0,-600.0" stroke-width="2" stroke="black" />
<path d="M260,-660 L300.0,-620.0" stroke-width="2" stroke="black" />
<path d="M260,-700 L240.0,-720.0" stroke-width="2" stroke="black" />
<path d="M260,-740 L300.0,-780.0" stroke-width="6" stroke="black" />
<path d="M260,-780 L280.0,-800.0" stroke-width="3" stroke="black" />
<path d="M300,-20 L240.0,40.0" stroke-width="6" stroke="black" />
<path d="M300,-60 L380.0,-140.0" stroke-width="2" stroke="black" />
<path d="M300,-100 L280.0,-80.0" stroke-width="1" stroke="black" />
<path d="M300,-140 L340.0,-100.0" stroke-width="2" stroke="black" />
<path d="M300,-180 L260.0,-140.0" stroke-width="6" stroke="black" />
<path d="M300,-220 L220.0,-300.0" stroke-width="1" stroke="black" />
<path d="M300,-260 L500.0,-460.0" stroke-width="2" stroke="black" />
<path d="M300,-300 L220.0,-380.0" stroke-width="1" stroke="black" />
<path d="M300,-340 L100.0,-540.0" stroke-width="1" stroke="black" />
<path d="M300,-380 L220.0,-460.0" stroke-width="3" stroke="black" />
<path d="M300,-420 L280.0,-400.0" stroke-width="1" stroke="black" />
<path d="M300,-460 L380.0,-380.0" stroke-width="10" stroke="black" />
<path d="M300,-500 L320.0,-480.0" stroke-width="2" stroke="black" />
<path d="M300,-540 L280.0,-560.0" stroke-width="2" stroke="black" />
<path d="M300,-580 L320.0,-560.0" stroke-width="2" stroke="black" />
<path d="M300,-620 L380.0,-540.0" stroke-width="2" stroke="black" />
<path d="M300,-660 L320.0,-680.0" stroke-width="10" stroke="black" />
<path d="M300,-700 L340.0,-740.0" stroke-width="10" stroke="black" />
<path d="M300,-740 L280.0,-760.0" stroke-width="2" stroke="black" />
<path d="M300,-780 L260.0,-740.0" stroke-width="2" stroke="black" />
<path d="M340,-20 L420.0,60.0" stroke-width="10" stroke="black" />
<path d="M340,-60 L320.0,-80.0" stroke-width="2" stroke="black" />
<path d="M340,-100 L360.0,-80.0" stroke-width="2" stroke="black" />
<path d="M340,-140 L260.0,-220.0" stroke-width="3" stroke="black" />
<path d="M340,-180 L140.0,-380.0" stroke-width="6" stroke="black" />
<path d="M340,-220 L280.0,-280.0" stroke-width="2" stroke="black" />
<path d="M340,-260 L380.0,-220.0" stroke-width="6" stroke="black" />
<path d="M340,-300 L540.0,-500.0" stroke-width="3" stroke="black" />
<path d="M340,-340 L140.0,-540.0" stroke-width="2" stroke="black" />
<path d="M340,-380 L300.0,-420.0" stroke-width="2" stroke="black" />
<path d="M340,-420 L320.0,-440.0" stroke-width="3" stroke="black" />
<path d="M340,-460 L380.0,-420.0" stroke-width="1" stroke="black" />
<path d="M340,-500 L140.0,-700.0" stroke-width="2" stroke="black" />
<path d="M340,-540 L260.0,-620.0" stroke-width="1" stroke="black" />
<path d="M340,-580 L320.0,-560.0" stroke-width="2" stroke="black" />
<path d="M340,-620 L140.0,-420.0" stroke-width="1" stroke="black" />
<path d="M340,-660 L380.0,-700.0" stroke-width="3" stroke="black" />
<path d="M340,-700 L360.0,-720.0" stroke-width="6" stroke="black" />
<path d="M340,-740 L320.0,-760.0" stroke-width="2" stroke="black" />
<path d="M340,-780 L320.0,-800.0" stroke-width="2" stroke="black" />
<path d="M380,-20 L320.0,40.0" stroke-width="1" stroke="black" />
<path d="M380,-60 L400.0,-40.0" stroke-width="3" stroke="black" />
<path d="M380,-100 L360.0,-120.0" stroke-width="2" stroke="black" />
<path d="M380,-140 L360.0,-160.0" stroke-width="2" stroke="black" />
<path d="M380,-180 L400.0,-200.0" stroke-width="10" stroke="black" />
<path d="M380,-220 L300.0,-300.0" stroke-width="3" stroke="black" />
<path d="M380,-260 L180.0,-460.0" stroke-width="1" stroke="black" />
<path d="M380,-300 L360.0,-320.0" stroke-width="3" stroke="black" />
<path d="M380,-340 L360.0,-320.0" stroke-width="2" stroke="black" />
<path d="M380,-380 L360.0,-400.0" stroke-width="3" stroke="black" />
<path d="M380,-420 L340.0,-380.0" stroke-width="3" stroke="black" />
<path d="M380,-460 L320.0,-520.0" stroke-width="6" stroke="black" />
<path d="M380,-500 L320.0,-440.0" stroke-width="1" stroke="black" />
<path d="M380,-540 L420.0,-580.0" stroke-width="2" stroke="black" />
<path d="M380,-580 L320.0,-640.0" stroke-width="3" stroke="black" />
<path d="M380,-620 L300.0,-540.0" stroke-width="3" stroke="black" />
<path d="M380,-660 L400.0,-680.0" stroke-width="2" stroke="black" />
<path d="M380,-700 L440.0,-640.0" stroke-width="2" stroke="black" />
<path d="M380,-740 L420.0,-780.0" stroke-width="3" stroke="black" />
<path d="M380,-780 L360.0,-800.0" stroke-width="10" stroke="black" />
<path d="M420,-20 L340.0,-100.0" stroke-width="1" stroke="black" />
<path d="M420,-60 L440.0,-40.0" stroke-width="1" stroke="black" />
<path d="M420,-100 L380.0,-60.0" stroke-width="6" stroke="black" />
<path d="M420,-140 L480.0,-80.0" stroke-width="3" stroke="black" />
<path d="M420,-180 L400.0,-200.0" stroke-width="1" stroke="black" />
<path d="M420,-220 L620.0,-420.0" stroke-width="2" stroke="black" />
<path d="M420,-260 L400.0,-240.0" stroke-width="2" stroke="black" />
<path d="M420,-300 L220.0,-500.0" stroke-width="1" stroke="black" />
<path d="M420,-340 L460.0,-380.0" stroke-width="6" stroke="black" />
<path d="M420,-380 L380.0,-420.0" stroke-width="2" stroke="black" />
<path d="M420,-420 L440.0,-440.0" stroke-width="1" stroke="black" />
<path d="M420,-460 L440.0,-440.0" stroke-width="2" stroke="black" />
<path d="M420,-500 L440.0,-480.0" stroke-width="6" stroke="black" />
<path d="M420,-540 L380.0,-500.0" stroke-width="6" stroke="black" />
<path d="M420,-580 L440.0,-560.0" stroke-width="2" stroke="black" />
<path d="M420,-620 L380.0,-580.0" stroke-width="2" stroke="black" />
<path d="M420,-660 L340.0,-740.0" stroke-width="2" stroke="black" />
<path d="M420,-700 L460.0,-740.0" stroke-width="1" stroke="black" />
<path d="M420,-740 L500.0,-660.0" stroke-width="2" stroke="black" />
<path d="M420,-780 L480.0,-840.0" stroke-width="1" stroke="black" />
<path d="M460,-20 L500.0,20.0" stroke-width="3" stroke="black" />
<path d="M460,-60 L480.0,-80.0" stroke-width="3" stroke="black" />
<path d="M460,-100 L440.0,-120.0" stroke-width="2" stroke="black" />
<path d="M460,-140 L440.0,-120.0" stroke-width="3" stroke="black" />
<path d="M460,-180 L520.0,-120.0" stroke-width="2" stroke="black" />
<path d="M460,-220 L440.0,-240.0" stroke-width="6" stroke="black" />
<path d="M460,-260 L480.0,-240.0" stroke-width="2" stroke="black" />
<path d="M460,-300 L420.0,-260.0" stroke-width="3" stroke="black" />
<path d="M460,-340 L440.0,-320.0" stroke-width="6" stroke="black" />
<path d="M460,-380 L500.0,-340.0" stroke-width="2" stroke="black" />
<path d="M460,-420 L400.0,-480.0" stroke-width="3" stroke="black" />
<path d="M460,-460 L480.0,-480.0" stroke-width="1" stroke="black" />
<path d="M460,-500 L440.0,-480.0" stroke-width="3" stroke="black" />
<path d="M460,-540 L440.0,-520.0" stroke-width="3" stroke="black" />
<path d="M460,-580 L500.0,-540.0" stroke-width="6" stroke="black" />
<path d="M460,-620 L480.0,-600.0" stroke-width="2" stroke="black" />
<path d="M460,-660 L660.0,-460.0" stroke-width="3" stroke="black" />
<path d="M460,-700 L500.0,-660.0" stroke-width="2" stroke="black" />
<path d="M460,-740 L440.0,-720.0" stroke-width="3" stroke="black" />
<path d="M460,-780 L440.0,-760.0" stroke-width="2" stroke="black" />
<path d="M500,-20 L520.0,-40.0" stroke-width="1" stroke="black" />
<path d="M500,-60 L480.0,-40.0" stroke-width="2" stroke="black" />
<path d="M500,-100 L300.0,100.0" stroke-width="6" stroke="black" />
<path d="M500,-140 L460.0,-180.0" stroke-width="3" stroke="black" />
<path d="M500,-180 L460.0,-140.0" stroke-width="2" stroke="black" />
<path d="M500,-220 L480.0,-200.0" stroke-width="2" stroke="black" />
<path d="M500,-260 L480.0,-280.0" stroke-width="2" stroke="black" />
<path d="M500,-300 L540.0,-340.0" stroke-width="10" stroke="black" />
<path d="M500,-340 L480.0,-320.0" stroke-width="6" stroke="black" />
<path d="M500,-380 L480.0,-400.0" stroke-width="1" stroke="black" />
<path d="M500,-420 L480.0,-440.0" stroke-width="3" stroke="black" />
<path d="M500,-460 L520.0,-480.0" stroke-width="6" stroke="black" />
<path d="M500,-500 L520.0,-520.0" stroke-width="2" stroke="black" />
<path d="M500,-540 L440.0,-480.0" stroke-width="2" stroke="black" />
<path d="M500,-580 L520.0,-600.0" stroke-width="2" stroke="black" />
<path d="M500,-620 L540.0,-580.0" stroke-width="1" stroke="black" />
<path d="M500,-660 L520.0,-680.0" stroke-width="6" stroke="black" />
<path d="M500,-700 L480.0,-680.0" stroke-width="1" stroke="black" />
<path d="M500,-740 L540.0,-700.0" stroke-width="2" stroke="black" />
<path d="M500,-780 L700.0,-580.0" stroke-width="2" stroke="black" />
<path d="M540,-20 L560.0,-0.0" stroke-width="1" stroke="black" />
<path d="M540,-60 L340.0,140.0" stroke-width="1" stroke="black" />
<path d="M540,-100 L520.0,-80.0" stroke-width="1" stroke="black" />
<path d="M540,-140 L520.0,-120.0" stroke-width="3" stroke="black" />
<path d="M540,-180 L560.0,-200.0" stroke-width="10" stroke="black" />
<path d="M540,-220 L500.0,-260.0" stroke-width="1" stroke="black" />
<path d="M540,-260 L560.0,-240.0" stroke-width="2" stroke="black" />
<path d="M540,-300 L480.0,-360.0" stroke-width="10" stroke="black" />
<path d="M540,-340 L520.0,-360.0" stroke-width="2" stroke="black" />
<path d="M540,-380 L520.0,-360.0" stroke-width="3" stroke="black" />
<path d="M540,-420 L580.0,-380.0" stroke-width="3" stroke="black" />
<path d="M540,-460 L480.0,-520.0" stroke-width="3" stroke="black" />
<path d="M540,-500 L460.0,-420.0" stroke-width="3" stroke="black" />
<path d="M540,-540 L740.0,-740.0" stroke-width="2" stroke="black" />
<path d="M540,-580 L500.0,-540.0" stroke-width="3" stroke="black" />
<path d="M540,-620 L500.0,-580.0" stroke-width="3" stroke="black" />
<path d="M540,-660 L560.0,-640.0" stroke-width="3" stroke="black" />
<path d="M540,-700 L560.0,-720.0" stroke-width="2" stroke="black" />
<path d="M540,-740 L620.0,-660.0" stroke-width="3" stroke="black" />
<path d="M540,-780 L520.0,-800.0" stroke-width="2" stroke="black" />
<path d="M580,-20 L620.0,20.0" stroke-width="3" stroke="black" />
<path d="M580,-60 L640.0,-120.0" stroke-width="1" stroke="black" />
<path d="M580,-100 L540.0,-60.0" stroke-width="2" stroke="black" />
<path d="M580,-140 L600.0,-120.0" stroke-width="2" stroke="black" />
<path d="M580,-180 L560.0,-200.0" stroke-width="2" stroke="black" />
<path d="M580,-220 L600.0,-240.0" stroke-width="1" stroke="black" />
<path d="M580,-260 L540.0,-300.0" stroke-width="1" stroke="black" />
<path d="M580,-300 L560.0,-320.0" stroke-width="10" stroke="black" />
<path d="M580,-340 L780.0,-140.0" stroke-width="2" stroke="black" />
<path d="M580,-380 L660.0,-300.0" stroke-width="2" stroke="black" />
<path d="M580,-420 L780.0,-220.0" stroke-width="2" stroke="black" />
<path d="M580,-460 L640.0,-520.0" stroke-width="6" stroke="black" />
<path d="M580,-500 L600.0,-480.0" stroke-width="3" stroke="black" />
<path d="M580,-540 L560.0,-520.0" stroke-width="3" stroke="black" />
<path d="M580,-580 L640.0,-520.0" stroke-width="3" stroke="black" />
<path d="M580,-620 L780.0,-420.0" stroke-width="3" stroke="black" />
<path d="M580,-660 L660.0,-740.0" stroke-width="3" stroke="black" />
<path d="M580,-700 L560.0,-720.0" stroke-width="10" stroke="black" />
<path d="M580,-740 L500.0,-660.0" stroke-width="6" stroke="black" />
<path d="M580,-780 L600.0,-760.0" stroke-width="3" stroke="black" />
<path d="M620,-20 L640.0,-0.0" stroke-width="2" stroke="black" />
<path d="M620,-60 L660.0,-100.0" stroke-width="2" stroke="black" />
<path d="M620,-100 L420.0,-300.0" stroke-width="1" stroke="black" />
<path d="M620,-140 L600.0,-120.0" stroke-width="3" stroke="black" />
<path d="M620,-180 L640.0,-200.0" stroke-width="2" stroke="black" />
<path d="M620,-220 L680.0,-160.0" stroke-width="6" stroke="black" />
<path d="M620,-260 L660.0,-220.0" stroke-width="1" stroke="black" />
<path d="M620,-300 L660.0,-340.0" stroke-width="10" stroke="black" />
<path d="M620,-340 L640.0,-360.0" stroke-width="3" stroke="black" />
<path d="M620,-380 L600.0,-360.0" stroke-width="10" stroke="black" />
<path d="M620,-420 L600.0,-440.0" stroke-width="1" stroke="black" />
<path d="M620,-460 L700.0,-540.0" stroke-width="3" stroke="black" />
<path d="M620,-500 L820.0,-700.0" stroke-width="2" stroke="black" />
<path d="M620,-540 L600.0,-520.0" stroke-width="2" stroke="black" />
<path d="M620,-580 L580.0,-620.0" stroke-width="1" stroke="black" />
<path d="M620,-620 L640.0,-600.0" stroke-width="3" stroke="black" />
<path d="M620,-660 L660.0,-620.0" stroke-width="1" stroke="black" />
<path d="M620,-700 L560.0,-640.0" stroke-width="2" stroke="black" />
<path d="M620,-740 L540.0,-660.0" stroke-width="2" stroke="black" />
<path d="M620,-780 L540.0,-700.0" stroke-width="2" stroke="black" />
<path d="M660,-20 L680.0,-40.0" stroke-width="3" stroke="black" />
<path d="M660,-60 L600.0,-0.0" stroke-width="2" stroke="black" />
<path d="M660,-100 L620.0,-60.0" stroke-width="1" stroke="black" />
<path d="M660,-140 L700.0,-180.0" stroke-width="2" stroke="black" />
<path d="M660,-180 L700.0,-220.0" stroke-width="2" stroke="black" />
<path d="M660,-220 L700.0,-180.0" stroke-width="2" stroke="black" />
<path d="M660,-260 L680.0,-280.0" stroke-width="6" stroke="black" />
<path d="M660,-300 L680.0,-280.0" stroke-width="2" stroke="black" />
<path d="M660,-340 L700.0,-300.0" stroke-width="1" stroke="black" />
<path d="M660,-380 L620.0,-420.0" stroke-width="10" stroke="black" />
<path d="M660,-420 L600.0,-360.0" stroke-width="2" stroke="black" />
<path d="M660,-460 L600.0,-520.0" stroke-width="6" stroke="black" />
<path d="M660,-500 L680.0,-480.0" stroke-width="1" stroke="black" />
<path d="M660,-540 L680.0,-560.0" stroke-width="1" stroke="black" />
<path d="M660,-580 L680.0,-560.0" stroke-width="3" stroke="black" />
<path d="M660,-620 L640.0,-600.0" stroke-width="1" stroke="black" />
<path d="M660,-660 L640.0,-680.0" stroke-width="1" stroke="black" />
<path d="M660,-700 L620.0,-660.0" stroke-width="3" stroke="black" />
<path d="M660,-740 L700.0,-780.0" stroke-width="3" stroke="black" />
<path d="M660,-780 L580.0,-700.0" stroke-width="1" stroke="black" />
<path d="M700,-20 L740.0,20.0" stroke-width="2" stroke="black" />
<path d="M700,-60 L740.0,-20.0" stroke-width="10" stroke="black" />
<path d="M700,-100 L900.0,-300.0" stroke-width="3" stroke="black" />
<path d="M700,-140 L720.0,-120.0" stroke-width="6" stroke="black" />
<path d="M700,-180 L740.0,-220.0" stroke-width="1" stroke="black" />
<path d="M700,-220 L780.0,-300.0" stroke-width="3" stroke="black" />
<path d="M700,-260 L760.0,-320.0" stroke-width="2" stroke="black" />
<path d="M700,-300 L660.0,-260.0" stroke-width="10" stroke="black" />
<path d="M700,-340 L660.0,-380.0" stroke-width="3" stroke="black" />
<path d="M700,-380 L680.0,-400.0" stroke-width="2" stroke="black" />
<path d="M700,-420 L680.0,-440.0" stroke-width="2" stroke="black" />
<path d="M700,-460 L720.0,-480.0" stroke-width="1" stroke="black" />
<path d="M700,-500 L620.0,-420.0" stroke-width="2" stroke="black" />
<path d="M700,-540 L720.0,-520.0" stroke-width="10" stroke="black" />
<path d="M700,-580 L720.0,-600.0" stroke-width="2" stroke="black" />
<path d="M700,-620 L900.0,-820.0" stroke-width="2" stroke="black" />
<path d="M700,-660 L780.0,-740.0" stroke-width="1" stroke="black" />
<path d="M700,-700 L640.0,-640.0" stroke-width="3" stroke="black" />
<path d="M700,-740 L760.0,-680.0" stroke-width="2" stroke="black" />
<path d="M700,-780 L680.0,-760.0" stroke-width="1" stroke="black" />
<path d="M740,-20 L700.0,20.0" stroke-width="2" stroke="black" />
<path d="M740,-60 L540.0,-260.0" stroke-width="6" stroke="black" />
<path d="M740,-100 L720.0,-120.0" stroke-width="1" stroke="black" />
<path d="M740,-140 L720.0,-120.0" stroke-width="6" stroke="black" />
<path d="M740,-180 L820.0,-260.0" stroke-width="1" stroke="black" />
<path d="M740,-220 L540.0,-420.0" stroke-width="3" stroke="black" />
<path d="M740,-260 L780.0,-300.0" stroke-width="2" stroke="black" />
<path d="M740,-300 L780.0,-340.0" stroke-width="1" stroke="black" />
<path d="M740,-340 L820.0,-420.0" stroke-width="3" stroke="black" />
<path d="M740,-380 L680.0,-440.0" stroke-width="2" stroke="black" />
<path d="M740,-420 L700.0,-460.0" stroke-width="2" stroke="black" />
<path d="M740,-460 L760.0,-440.0" stroke-width="2" stroke="black" />
<path d="M740,-500 L720.0,-520.0" stroke-width="10" stroke="black" />
<path d="M740,-540 L760.0,-520.0" stroke-width="3" stroke="black" />
<path d="M740,-580 L720.0,-560.0" stroke-width="3" stroke="black" />
<path d="M740,-620 L720.0,-600.0" stroke-width="1" stroke="black" />
<path d="M740,-660 L760.0,-640.0" stroke-width="1" stroke="black" />
<path d="M740,-700 L720.0,-720.0" stroke-width="1" stroke="black" />
<path d="M740,-740 L760.0,-720.0" stroke-width="1" stroke="black" />
<path d="M740,-780 L760.0,-800.0" stroke-width="3" stroke="black" />
<path d="M780,-20 L760.0,-40.0" stroke-width="2" stroke="black" />
<path d="M780,-60 L740.0,-100.0" stroke-width="6" stroke="black" />
<path d="M780,-100 L980.0,-300.0" stroke-width="2" stroke="black" />
<path d="M780,-140 L980.0,60.0" stroke-width="2" stroke="black" />
<path d="M780,-180 L760.0,-160.0" stroke-width="6" stroke="black" />
<path d="M780,-220 L760.0,-240.0" stroke-width="1" stroke="black" />
<path d="M780,-260 L580.0,-460.0" stroke-width="2" stroke="black" />
<path d="M780,-300 L760.0,-320.0" stroke-width="2" stroke="black" />
<path d="M780,-340 L720.0,-400.0" stroke-width="3" stroke="black" />
<path d="M780,-380 L740.0,-340.0" stroke-width="2" stroke="black" />
<path d="M780,-420 L860.0,-340.0" stroke-width="3" stroke="black" />
<path d="M780,-460 L760.0,-480.0" stroke-width="10" stroke="black" />
<path d="M780,-500 L800.0,-480.0" stroke-width="2" stroke="black" />
<path d="M780,-540 L860.0,-460.0" stroke-width="2" stroke="black" />
<path d="M780,-580 L760.0,-560.0" stroke-width="3" stroke="black" />
<path d="M780,-620 L740.0,-580.0" stroke-width="2" stroke="black" />
<path d="M780,-660 L760.0,-640.0" stroke-width="1" stroke="black" />
<path d="M780,-700 L980.0,-900.0" stroke-width="2" stroke="black" />
<path d="M780,-740 L760.0,-760.0" stroke-width="2" stroke="black" />
<path d="M780,-780 L740.0,-820.0" stroke-width="1" stroke="black" />
</svg>