<?xml version="1.0" encoding="UTF-8"?>
<svg xmlns="http://www.w3.org/2000/svg" xmlns:xlink="http://www.w3.org/1999/xlink"
     width="800" height="800" viewBox="0 -800 800 800">
<defs>
</defs>
<circle cx="60.0" cy="-63.0" r="30" fill-opacity="0.0" stroke="black" stroke-width="1" />
<circle cx="61.0" cy="-63.5" r="45" fill-opacity="0.0" stroke="black" stroke-width="2" />
<circle cx="62.0" cy="-64.0" r="44" fill-opacity="0.0" stroke="black" stroke-width="2" />
<circle cx="63.0" cy="-64.5" r="32" fill-opacity="0.0" stroke="black" stroke-width="2" />
<circle cx="64.0" cy="-65.0" r="27" fill-opacity="0.0" stroke="black" stroke-width="1" />
<circle cx="65.0" cy="-65.5" r="43" fill-opacity="0.0" stroke="black" stroke-width="2" />
<circle cx="66.0" cy="-66.0" r="36" fill-opacity="0.0" stroke="black" stroke-width="1" />
<circle cx="58.0" cy="-193.0" r="41" fill-opacity="0.0" stroke="black" stroke-width="2" />
<circle cx="59.333333333333336" cy="-193.83333333333334" r="38" fill-opacity="0.0" stroke="black" stroke-width="1" />
<circle cx="60.666666666666664" cy="-194.66666666666666" r="42" fill-opacity="0.0" stroke="black" stroke-width="2" />
<circle cx="62.0" cy="-195.5" r="30" fill-opacity="0.0" stroke="black" stroke-width="1" />
<circle cx="63.333333333333336" cy="-196.33333333333334" r="31" fill-opacity="0.0" stroke="black" stroke-width="1" />
<circle cx="64.66666666666667" cy="-197.16666666666666" r="33" fill-opacity="0.0" stroke="black" stroke-width="2" />
<circle cx="66.0" cy="-198.0" r="42" fill-opacity="0.0" stroke="black" stroke-width="2" />
<circle cx="79.0" cy="-319.0" r="45" fill-opacity="0.0" stroke="black" stroke-width="2" />
<circle cx="76.83333333333333" cy="-320.8333333333333" r="44" fill-opacity="0.0" stroke="black" stroke-width="4" />
<circle cx="74.66666666666667" cy="-322.6666666666667" r="37" fill-opacity="0.0" stroke="black" stroke-width="1" />
<circle cx="72.5" cy="-324.5" r="30" fill-opacity="0.0" stroke="black" stroke-width="1" />
<circle cx="70.33333333333333" cy="-326.3333333333333" r="42" fill-opacity="0.0" stroke="black" stroke-width="1" />
<circle cx="68.16666666666667" cy="-328.1666666666667" r="39" fill-opacity="0.0" stroke="black" stroke-width="3" />
<circle cx="66.0" cy="-330.0" r="30" fill-opacity="0.0" stroke="black" stroke-width="2" />
<circle cx="59.0" cy="-442.0" r="46" fill-opacity="0.0" stroke="black" stroke-width="1" />
<circle cx="60.166666666666664" cy="-445.3333333333333" r="28" fill-opacity="0.0" stroke="black" stroke-width="3" />
<circle cx="61.333333333333336" cy="-448.6666666666667" r="40" fill-opacity="0.0" stroke="black" stroke-width="3" />
<circle cx="62.5" cy="-452.0" r="32" fill-opacity="0.0" stroke="black" stroke-width="5" />
<circle cx="63.666666666666664" cy="-455.3333333333333" r="26" fill-opacity="0.0" stroke="black" stroke-width="3" />
<circle cx="64.83333333333333" cy="-458.6666666666667" r="45" fill-opacity="0.0" stroke="black" stroke-width="3" />
<circle cx="66.0" cy="-462.0" r="46" fill-opacity="0.0" stroke="black" stroke-width="1" />
<circle cx="73.0" cy="-601.0" r="34" fill-opacity="0.0" stroke="black" stroke-width="1" />
<circle cx="71.83333333333333" cy="-599.8333333333334" r="27" fill-opacity="0.0" stroke="black" stroke-width="2" />
<circle cx="70.66666666666667" cy="-598.6666666666666" r="37" fill-opacity="0.0" stroke="black" stroke-width="3" />
<circle cx="69.5" cy="-597.5" r="39" fill-opacity="0.0" stroke="black" stroke-width="1" />
<circle cx="68.33333333333333" cy="-596.3333333333334" r="41" fill-opacity="0.0" stroke="black" stroke-width="1" />
<circle cx="67.16666666666667" cy="-595.1666666666666" r="29" fill-opacity="0.0" stroke="black" stroke-width="1" />
<circle cx="66.0" cy="-594.0" r="30" fill-opacity="0.0" stroke="black" stroke-width="2" />
<circle cx="49.0" cy="-729.0" r="37" fill-opacity="0.0" stroke="black" stroke-width="1" />
<circle cx="51.833333333333336" cy="-728.5" r="30" fill-opacity="0.0" stroke="black" stroke-width="2" />
<circle cx="54.666666666666664" cy="-728.0" r="44" fill-opacity="0.0" stroke="black" stroke-width="2" />
<circle cx="57.5" cy="-727.5" r="26" fill-opacity="0.0" stroke="black" stroke-width="2" />
<circle cx="60.333333333333336" cy="-727.0" r="44" fill-opacity="0.0" stroke="black" stroke-width="1" />
<circle cx="63.16666666666667" cy="-726.5" r="41" fill-opacity="0.0" stroke="black" stroke-width="2" />
<circle cx="66.0" cy="-726.0" r="29" fill-opacity="0.0" stroke="black" stroke-width="3" />
<circle cx="205.0" cy="-72.0" r="39" fill-opacity="0.0" stroke="black" stroke-width="1" />
<circle cx="203.83333333333334" cy="-71.0" r="29" fill-opacity="0.0" stroke="black" stroke-width="2" />
<circle cx="202.66666666666666" cy="-70.0" r="37" fill-opacity="0.0" stroke="black" stroke-width="3" />
<circle cx="201.5" cy="-69.0" r="38" fill-opacity="0.0" stroke="black" stroke-width="2" />
<circle cx="200.33333333333334" cy="-68.0" r="39" fill-opacity="0.0" stroke="black" stroke-width="1" />
<circle cx="199.16666666666666" cy="-67.0" r="46" fill-opacity="0.0" stroke="black" stroke-width="3" />
<circle cx="198.0" cy="-66.0" r="26" fill-opacity="0.0" stroke="black" stroke-width="2" />
<circle cx="185.0" cy="-189.0" r="29" fill-opacity="0.0" stroke="black" stroke-width="1" />
<circle cx="187.16666666666666" cy="-190.5" r="45" fill-opacity="0.0" stroke="black" stroke-width="2" />
<circle cx="189.33333333333334" cy="-192.0" r="33" fill-opacity="0.0" stroke="black" stroke-width="1" />
<circle cx="191.5" cy="-193.5" r="29" fill-opacity="0.0" stroke="black" stroke-width="2" />
<circle cx="193.66666666666666" cy="-195.0" r="29" fill-opacity="0.0" stroke="black" stroke-width="1" />
<circle cx="195.83333333333334" cy="-196.5" r="42" fill-opacity="0.0" stroke="black" stroke-width="1" />
<circle cx="198.0" cy="-198.0" r="30" fill-opacity="0.0" stroke="black" stroke-width="2" />
<circle cx="201.0" cy="-334.0" r="30" fill-opacity="0.0" stroke="black" stroke-width="5" />
<circle cx="200.5" cy="-333.3333333333333" r="38" fill-opacity="0.0" stroke="black" stroke-width="1" />
<circle cx="200.0" cy="-332.6666666666667" r="35" fill-opacity="0.0" stroke="black" stroke-width="2" />
<circle cx="199.5" cy="-332.0" r="41" fill-opacity="0.0" stroke="black" stroke-width="1" />
<circle cx="199.0" cy="-331.3333333333333" r="39" fill-opacity="0.0" stroke="black" stroke-width="1" />
<circle cx="198.5" cy="-330.6666666666667" r="42" fill-opacity="0.0" stroke="black" stroke-width="1" />
<circle cx="198.0" cy="-330.0" r="38" fill-opacity="0.0" stroke="black" stroke-width="1" />
<circle cx="181.0" cy="-443.0" r="37" fill-opacity="0.0" stroke="black" stroke-width="1" />
<circle cx="183.83333333333334" cy="-446.1666666666667" r="27" fill-opacity="0.0" stroke="black" stroke-width="3" />
<circle cx="186.66666666666666" cy="-449.3333333333333" r="35" fill-opacity="0.0" stroke="black" stroke-width="1" />
<circle cx="189.5" cy="-452.5" r="34" fill-opacity="0.0" stroke="black" stroke-width="2" />
<circle cx="192.33333333333334" cy="-455.6666666666667" r="40" fill-opacity="0.0" stroke="black" stroke-width="2" />
<circle cx="195.16666666666666" cy="-458.8333333333333" r="42" fill-opacity="0.0" stroke="black" stroke-width="2" />
<circle cx="198.0" cy="-462.0" r="42" fill-opacity="0.0" stroke="black" stroke-width="2" />
<circle cx="215.0" cy="-614.0" r="45" fill-opacity="0.0" stroke="black" stroke-width="2" />
<circle cx="212.16666666666666" cy="-610.6666666666666" r="35" fill-opacity="0.0" stroke="black" stroke-width="2" />
<circle cx="209.33333333333334" cy="-607.3333333333334" r="37" fill-opacity="0.0" stroke="black" stroke-width="3" />
<circle cx="206.5" cy="-604.0" r="29" fill-opacity="0.0" stroke="black" stroke-width="1" />
<circle cx="203.66666666666666" cy="-600.6666666666666" r="32" fill-opacity="0.0" stroke="black" stroke-width="3" />
<circle cx="200.83333333333334" cy="-597.3333333333334" r="41" fill-opacity="0.0" stroke="black" stroke-width="1" />
<circle cx="198.0" cy="-594.0" r="32" fill-opacity="0.0" stroke="black" stroke-width="4" />
<circle cx="216.0" cy="-736.0" r="36" fill-opacity="0.0" stroke="black" stroke-width="3" />
<circle cx="213.0" cy="-734.3333333333334" r="42" fill-opacity="0.0" stroke="black" stroke-width="2" />
<circle cx="210.0" cy="-732.6666666666666" r="46" fill-opacity="0.0" stroke="black" stroke-width="1" />
<circle cx="207.0" cy="-731.0" r="42" fill-opacity="0.0" stroke="black" stroke-width="1" />
<circle cx="204.0" cy="-729.3333333333334" r="34" fill-opacity="0.0" stroke="black" stroke-width="2" />
<circle cx="201.0" cy="-727.6666666666666" r="27" fill-opacity="0.0" stroke="black" stroke-width="5" />
<circle cx="198.0" cy="-726.0" r="36" fill-opacity="0.0" stroke="black" stroke-width="2" />
<circle cx="341.0" cy="-66.0" r="43" fill-opacity="0.0" stroke="black" stroke-width="2" />
<circle cx="339.1666666666667" cy="-66.0" r="41" fill-opacity="0.0" stroke="black" stroke-width="2" />
<circle cx="337.3333333333333" cy="-66.0" r="44" fill-opacity="0.0" stroke="black" stroke-width="1" />
<circle cx="335.5" cy="-66.0" r="26" fill-opacity="0.0" stroke="black" stroke-width="3" />
<circle cx="333.6666666666667" cy="-66.0" r="31" fill-opacity="0.0" stroke="black" stroke-width="2" />
<circle cx="331.8333333333333" cy="-66.0" r="30" fill-opacity="0.0" stroke="black" stroke-width="2" />
<circle cx="330.0" cy="-66.0" r="44" fill-opacity="0.0" stroke="black" stroke-width="2" />
<circle cx="341.0" cy="-214.0" r="45" fill-opacity="0.0" stroke="black" stroke-width="1" />
<circle cx="339.1666666666667" cy="-211.33333333333334" r="35" fill-opacity="0.0" stroke="black" stroke-width="2" />
<circle cx="337.3333333333333" cy="-208.66666666666666" r="32" fill-opacity="0.0" stroke="black" stroke-width="1" />
<circle cx="335.5" cy="-206.0" r="40" fill-opacity="0.0" stroke="black" stroke-width="1" />
<circle cx="333.6666666666667" cy="-203.33333333333334" r="35" fill-opacity="0.0" stroke="black" stroke-width="1" />
<circle cx="331.8333333333333" cy="-200.66666666666666" r="26" fill-opacity="0.0" stroke="black" stroke-width="1" />
<circle cx="330.0" cy="-198.0" r="30" fill-opacity="0.0" stroke="black" stroke-width="2" />
<circle cx="311.0" cy="-312.0" r="29" fill-opacity="0.0" stroke="black" stroke-width="1" />
<circle cx="314.1666666666667" cy="-315.0" r="36" fill-opacity="0.0" stroke="black" stroke-width="1" />
<circle cx="317.3333333333333" cy="-318.0" r="44" fill-opacity="0.0" stroke="black" stroke-width="5" />
<circle cx="320.5" cy="-321.0" r="33" fill-opacity="0.0" stroke="black" stroke-width="1" />
<circle cx="323.6666666666667" cy="-324.0" r="36" fill-opacity="0.0" stroke="black" stroke-width="4" />
<circle cx="326.8333333333333" cy="-327.0" r="38" fill-opacity="0.0" stroke="black" stroke-width="1" />
<circle cx="330.0" cy="-330.0" r="26" fill-opacity="0.0" stroke="black" stroke-width="3" />
<circle cx="310.0" cy="-467.0" r="26" fill-opacity="0.0" stroke="black" stroke-width="2" />
<circle cx="313.3333333333333" cy="-466.1666666666667" r="41" fill-opacity="0.0" stroke="black" stroke-width="2" />
<circle cx="316.6666666666667" cy="-465.3333333333333" r="41" fill-opacity="0.0" stroke="black" stroke-width="2" />
<circle cx="320.0" cy="-464.5" r="32" fill-opacity="0.0" stroke="black" stroke-width="3" />
<circle cx="323.3333333333333" cy="-463.6666666666667" r="35" fill-opacity="0.0" stroke="black" stroke-width="2" />
<circle cx="326.6666666666667" cy="-462.8333333333333" r="27" fill-opacity="0.0" stroke="black" stroke-width="2" />
<circle cx="330.0" cy="-462.0" r="41" fill-opacity="0.0" stroke="black" stroke-width="3" />
<circle cx="335.0" cy="-603.0" r="45" fill-opacity="0.0" stroke="black" stroke-width="1" />
<circle cx="334.1666666666667" cy="-601.5" r="38" fill-opacity="0.0" stroke="black" stroke-width="1" />
<circle cx="333.3333333333333" cy="-600.0" r="45" fill-opacity="0.0" stroke="black" stroke-width="1" />
<circle cx="332.5" cy="-598.5" r="36" fill-opacity="0.0" stroke="black" stroke-width="2" />
<circle cx="331.6666666666667" cy="-597.0" r="26" fill-opacity="0.0" stroke="black" stroke-width="1" />
<circle cx="330.8333333333333" cy="-595.5" r="41" fill-opacity="0.0" stroke="black" stroke-width="2" />
<circle cx="330.0" cy="-594.0" r="28" fill-opacity="0.0" stroke="black" stroke-width="3" />
<circle cx="319.0" cy="-710.0" r="45" fill-opacity="0.0" stroke="black" stroke-width="3" />
<circle cx="320.8333333333333" cy="-712.6666666666666" r="45" fill-opacity="0.0" stroke="black" stroke-width="3" />
<circle cx="322.6666666666667" cy="-715.3333333333334" r="26" fill-opacity="0.0" stroke="black" stroke-width="3" />
<circle cx="324.5" cy="-718.0" r="46" fill-opacity="0.0" stroke="black" stroke-width="2" />
<circle cx="326.3333333333333" cy="-720.6666666666666" r="30" fill-opacity="0.0" stroke="black" stroke-width="3" />
<circle cx="328.1666666666667" cy="-723.3333333333334" r="34" fill-opacity="0.0" stroke="black" stroke-width="2" />
<circle cx="330.0" cy="-726.0" r="26" fill-opacity="0.0" stroke="black" stroke-width="2" />
<circle cx="444.0" cy="-76.0" r="37" fill-opacity="0.0" stroke="black" stroke-width="2" />
<circle cx="447.0" cy="-74.33333333333333" r="29" fill-opacity="0.0" stroke="black" stroke-width="4" />
<circle cx="450.0" cy="-72.66666666666667" r="42" fill-opacity="0.0" stroke="black" stroke-width="2" />
<circle cx="453.0" cy="-71.0" r="30" fill-opacity="0.0" stroke="black" stroke-width="3" />
<circle cx="456.0" cy="-69.33333333333333" r="44" fill-opacity="0.0" stroke="black" stroke-width="2" />
<circle cx="459.0" cy="-67.66666666666667" r="37" fill-opacity="0.0" stroke="black" stroke-width="1" />
<circle cx="462.0" cy="-66.0" r="41" fill-opacity="0.0" stroke="black" stroke-width="2" />
<circle cx="447.0" cy="-212.0" r="45" fill-opacity="0.0" stroke="black" stroke-width="2" />
<circle cx="449.5" cy="-209.66666666666666" r="40" fill-opacity="0.0" stroke="black" stroke-width="5" />
<circle cx="452.0" cy="-207.33333333333334" r="39" fill-opacity="0.0" stroke="black" stroke-width="4" />
<circle cx="454.5" cy="-205.0" r="30" fill-opacity="0.0" stroke="black" stroke-width="1" />
<circle cx="457.0" cy="-202.66666666666666" r="39" fill-opacity="0.0" stroke="black" stroke-width="3" />
<circle cx="459.5" cy="-200.33333333333334" r="28" fill-opacity="0.0" stroke="black" stroke-width="2" />
<circle cx="462.0" cy="-198.0" r="26" fill-opacity="0.0" stroke="black" stroke-width="3" />
<circle cx="444.0" cy="-349.0" r="38" fill-opacity="0.0" stroke="black" stroke-width="1" />
<circle cx="447.0" cy="-345.8333333333333" r="33" fill-opacity="0.0" stroke="black" stroke-width="2" />
<circle cx="450.0" cy="-342.6666666666667" r="26" fill-opacity="0.0" stroke="black" stroke-width="1" />
<circle cx="453.0" cy="-339.5" r="36" fill-opacity="0.0" stroke="black" stroke-width="3" />
<circle cx="456.0" cy="-336.3333333333333" r="40" fill-opacity="0.0" stroke="black" stroke-width="1" />
<circle cx="459.0" cy="-333.1666666666667" r="38" fill-opacity="0.0" stroke="black" stroke-width="3" />
<circle cx="462.0" cy="-330.0" r="42" fill-opacity="0.0" stroke="black" stroke-width="2" />
<circle cx="450.0" cy="-461.0" r="29" fill-opacity="0.0" stroke="black" stroke-width="3" />
<circle cx="452.0" cy="-461.1666666666667" r="26" fill-opacity="0.0" stroke="black" stroke-width="5" />
<circle cx="454.0" cy="-461.3333333333333" r="27" fill-opacity="0.0" stroke="black" stroke-width="5" />
<circle cx="456.0" cy="-461.5" r="46" fill-opacity="0.0" stroke="black" stroke-width="5" />
<circle cx="458.0" cy="-461.6666666666667" r="40" fill-opacity="0.0" stroke="black" stroke-width="2" />
<circle cx="460.0" cy="-461.8333333333333" r="31" fill-opacity="0.0" stroke="black" stroke-width="2" />
<circle cx="462.0" cy="-462.0" r="27" fill-opacity="0.0" stroke="black" stroke-width="1" />
<circle cx="452.0" cy="-613.0" r="45" fill-opacity="0.0" stroke="black" stroke-width="2" />
<circle cx="453.6666666666667" cy="-609.8333333333334" r="34" fill-opacity="0.0" stroke="black" stroke-width="2" />
<circle cx="455.3333333333333" cy="-606.6666666666666" r="35" fill-opacity="0.0" stroke="black" stroke-width="1" />
<circle cx="457.0" cy="-603.5" r="35" fill-opacity="0.0" stroke="black" stroke-width="1" />
<circle cx="458.6666666666667" cy="-600.3333333333334" r="41" fill-opacity="0.0" stroke="black" stroke-width="1" />
<circle cx="460.3333333333333" cy="-597.1666666666666" r="29" fill-opacity="0.0" stroke="black" stroke-width="1" />
<circle cx="462.0" cy="-594.0" r="27" fill-opacity="0.0" stroke="black" stroke-width="2" />
<circle cx="459.0" cy="-715.0" r="40" fill-opacity="0.0" stroke="black" stroke-width="3" />
<circle cx="459.5" cy="-716.8333333333334" r="36" fill-opacity="0.0" stroke="black" stroke-width="1" />
<circle cx="460.0" cy="-718.6666666666666" r="26" fill-opacity="0.0" stroke="black" stroke-width="2" />
<circle cx="460.5" cy="-720.5" r="38" fill-opacity="0.0" stroke="black" stroke-width="1" />
<circle cx="461.0" cy="-722.3333333333334" r="42" fill-opacity="0.0" stroke="black" stroke-width="2" />
<circle cx="461.5" cy="-724.1666666666666" r="35" fill-opacity="0.0" stroke="black" stroke-width="1" />
<circle cx="462.0" cy="-726.0" r="30" fill-opacity="0.0" stroke="black" stroke-width="3" />
<circle cx="604.0" cy="-56.0" r="42" fill-opacity="0.0" stroke="black" stroke-width="1" />
<circle cx="602.3333333333334" cy="-57.666666666666664" r="34" fill-opacity="0.0" stroke="black" stroke-width="2" />
<circle cx="600.6666666666666" cy="-59.333333333333336" r="29" fill-opacity="0.0" stroke="black" stroke-width="4" />
<circle cx="599.0" cy="-61.0" r="40" fill-opacity="0.0" stroke="black" stroke-width="4" />
<circle cx="597.3333333333334" cy="-62.666666666666664" r="36" fill-opacity="0.0" stroke="black" stroke-width="1" />
<circle cx="595.6666666666666" cy="-64.33333333333333" r="42" fill-opacity="0.0" stroke="black" stroke-width="2" />
<circle cx="594.0" cy="-66.0" r="27" fill-opacity="0.0" stroke="black" stroke-width="1" />
<circle cx="597.0" cy="-190.0" r="32" fill-opacity="0.0" stroke="black" stroke-width="1" />
<circle cx="596.5" cy="-191.33333333333334" r="29" fill-opacity="0.0" stroke="black" stroke-width="2" />
<circle cx="596.0" cy="-192.66666666666666" r="36" fill-opacity="0.0" stroke="black" stroke-width="1" />
<circle cx="595.5" cy="-194.0" r="46" fill-opacity="0.0" stroke="black" stroke-width="1" />
<circle cx="595.0" cy="-195.33333333333334" r="40" fill-opacity="0.0" stroke="black" stroke-width="2" />
<circle cx="594.5" cy="-196.66666666666666" r="29" fill-opacity="0.0" stroke="black" stroke-width="2" />
<circle cx="594.0" cy="-198.0" r="44" fill-opacity="0.0" stroke="black" stroke-width="2" />
<circle cx="609.0" cy="-343.0" r="29" fill-opacity="0.0" stroke="black" stroke-width="1" />
<circle cx="606.5" cy="-340.8333333333333" r="46" fill-opacity="0.0" stroke="black" stroke-width="1" />
<circle cx="604.0" cy="-338.6666666666667" r="32" fill-opacity="0.0" stroke="black" stroke-width="1" />
<circle cx="601.5" cy="-336.5" r="27" fill-opacity="0.0" stroke="black" stroke-width="5" />
<circle cx="599.0" cy="-334.3333333333333" r="42" fill-opacity="0.0" stroke="black" stroke-width="2" />
<circle cx="596.5" cy="-332.1666666666667" r="42" fill-opacity="0.0" stroke="black" stroke-width="1" />
<circle cx="594.0" cy="-330.0" r="35" fill-opacity="0.0" stroke="black" stroke-width="2" />
<circle cx="588.0" cy="-447.0" r="33" fill-opacity="0.0" stroke="black" stroke-width="3" />
<circle cx="589.0" cy="-449.5" r="42" fill-opacity="0.0" stroke="black" stroke-width="2" />
<circle cx="590.0" cy="-452.0" r="42" fill-opacity="0.0" stroke="black" stroke-width="1" />
<circle cx="591.0" cy="-454.5" r="44" fill-opacity="0.0" stroke="black" stroke-width="4" />
<circle cx="592.0" cy="-457.0" r="31" fill-opacity="0.0" stroke="black" stroke-width="1" />
<circle cx="593.0" cy="-459.5" r="40" fill-opacity="0.0" stroke="black" stroke-width="3" />
<circle cx="594.0" cy="-462.0" r="44" fill-opacity="0.0" stroke="black" stroke-width="2" />
<circle cx="579.0" cy="-590.0" r="30" fill-opacity="0.0" stroke="black" stroke-width="2" />
<circle cx="581.5" cy="-590.6666666666666" r="34" fill-opacity="0.0" stroke="black" stroke-width="1" />
<circle cx="584.0" cy="-591.3333333333334" r="31" fill-opacity="0.0" stroke="black" stroke-width="4" />
<circle cx="586.5" cy="-592.0" r="44" fill-opacity="0.0" stroke="black" stroke-width="1" />
<circle cx="589.0" cy="-592.6666666666666" r="46" fill-opacity="0.0" stroke="black" stroke-width="1" />
<circle cx="591.5" cy="-593.3333333333334" r="46" fill-opacity="0.0" stroke="black" stroke-width="2" />
<circle cx="594.0" cy="-594.0" r="29" fill-opacity="0.0" stroke="black" stroke-width="1" />
<circle cx="587.0" cy="-718.0" r="26" fill-opacity="0.0" stroke="black" stroke-width="2" />
<circle cx="588.1666666666666" cy="-719.3333333333334" r="32" fill-opacity="0.0" stroke="black" stroke-width="5" />
<circle cx="589.3333333333334" cy="-720.6666666666666" r="30" fill-opacity="0.0" stroke="black" stroke-width="1" />
<circle cx="590.5" cy="-722.0" r="44" fill-opacity="0.0" stroke="black" stroke-width="4" />
<circle cx="591.6666666666666" cy="-723.3333333333334" r="36" fill-opacity="0.0" stroke="black" stroke-width="3" />
<circle cx="592.8333333333334" cy="-724.6666666666666" r="33" fill-opacity="0.0" stroke="black" stroke-width="2" />
<circle cx="594.0" cy="-726.0" r="44" fill-opacity="0.0" stroke="black" stroke-width="1" />
<circle cx="719.0" cy="-55.0" r="26" fill-opacity="0.0" stroke="black" stroke-width="3" />
<circle cx="720.1666666666666" cy="-56.833333333333336" r="42" fill-opacity="0.0" stroke="black" stroke-width="3" />
<circle cx="721.3333333333334" cy="-58.666666666666664" r="45" fill-opacity="0.0" stroke="black" stroke-width="1" />
<circle cx="722.5" cy="-60.5" r="34" fill-opacity="0.0" stroke="black" stroke-width="5" />
<circle cx="723.6666666666666" cy="-62.333333333333336" r="40" fill-opacity="0.0" stroke="black" stroke-width="1" />
<circle cx="724.8333333333334" cy="-64.16666666666667" r="35" fill-opacity="0.0" stroke="black" stroke-width="2" />
<circle cx="726.0" cy="-66.0" r="29" fill-opacity="0.0" stroke="black" stroke-width="1" />
<circle cx="707.0" cy="-216.0" r="28" fill-opacity="0.0" stroke="black" stroke-width="1" />
<circle cx="710.1666666666666" cy="-213.0" r="36" fill-opacity="0.0" stroke="black" stroke-width="2" />
<circle cx="713.3333333333334" cy="-210.0" r="34" fill-opacity="0.0" stroke="black" stroke-width="2" />
<circle cx="716.5" cy="-207.0" r="38" fill-opacity="0.0" stroke="black" stroke-width="1" />
<circle cx="719.6666666666666" cy="-204.0" r="40" fill-opacity="0.0" stroke="black" stroke-width="5" />
<circle cx="722.8333333333334" cy="-201.0" r="27" fill-opacity="0.0" stroke="black" stroke-width="2" />
<circle cx="726.0" cy="-198.0" r="39" fill-opacity="0.0" stroke="black" stroke-width="2" />
<circle cx="733.0" cy="-325.0" r="43" fill-opacity="0.0" stroke="black" stroke-width="2" />
<circle cx="731.8333333333334" cy="-325.8333333333333" r="29" fill-opacity="0.0" stroke="black" stroke-width="2" />
<circle cx="730.6666666666666" cy="-326.6666666666667" r="42" fill-opacity="0.0" stroke="black" stroke-width="5" />
<circle cx="729.5" cy="-327.5" r="37" fill-opacity="0.0" stroke="black" stroke-width="3" />
<circle cx="728.3333333333334" cy="-328.3333333333333" r="27" fill-opacity="0.0" stroke="black" stroke-width="1" />
<circle cx="727.1666666666666" cy="-329.1666666666667" r="37" fill-opacity="0.0" stroke="black" stroke-width="3" />
<circle cx="726.0" cy="-330.0" r="40" fill-opacity="0.0" stroke="black" stroke-width="3" />
<circle cx="743.0" cy="-467.0" r="30" fill-opacity="0.0" stroke="black" stroke-width="2" />
<circle cx="740.1666666666666" cy="-466.1666666666667" r="28" fill-opacity="0.0" stroke="black" stroke-width="2" />
<circle cx="737.3333333333334" cy="-465.3333333333333" r="43" fill-opacity="0.0" stroke="black" stroke-width="1" />
<circle cx="734.5" cy="-464.5" r="35" fill-opacity="0.0" stroke="black" stroke-width="1" />
<circle cx="731.6666666666666" cy="-463.6666666666667" r="40" fill-opacity="0.0" stroke="black" stroke-width="1" />
<circle cx="728.8333333333334" cy="-462.8333333333333" r="40" fill-opacity="0.0" stroke="black" stroke-width="5" />
<circle cx="726.0" cy="-462.0" r="36" fill-opacity="0.0" stroke="black" stroke-width="2" />
<circle cx="725.0" cy="-583.0" r="45" fill-opacity="0.0" stroke="black" stroke-width="2" />
<circle cx="725.1666666666666" cy="-584.8333333333334" r="37" fill-opacity="0.0" stroke="black" stroke-width="1" />
<circle cx="725.3333333333334" cy="-586.6666666666666" r="28" fill-opacity="0.0" stroke="black" stroke-width="2" />
<circle cx="725.5" cy="-588.5" r="39" fill-opacity="0.0" stroke="black" stroke-width="2" />
<circle cx="725.6666666666666" cy="-590.3333333333334" r="45" fill-opacity="0.0" stroke="black" stroke-width="3" />
<circle cx="725.8333333333334" cy="-592.1666666666666" r="37" fill-opacity="0.0" stroke="black" stroke-width="2" />
<circle cx="726.0" cy="-594.0" r="33" fill-opacity="0.0" stroke="black" stroke-width="5" />
<circle cx="722.0" cy="-743.0" r="30" fill-opacity="0.0" stroke="black" stroke-width="2" />
<circle cx="722.6666666666666" cy="-740.1666666666666" r="31" fill-opacity="0.0" stroke="black" stroke-width="3" />
<circle cx="723.3333333333334" cy="-737.3333333333334" r="34" fill-opacity="0.0" stroke="black" stroke-width="3" />
<circle cx="724.0" cy="-734.5" r="35" fill-opacity="0.0" stroke="black" stroke-width="3" />
<circle cx="724.6666666666666" cy="-731.6666666666666" r="28" fill-opacity="0.0" stroke="black" stroke-width="1" />
<circle cx="725.3333333333334" cy="-728.8333333333334" r="41" fill-opacity="0.0" stroke="black" stroke-width="2" />
<circle cx="726.0" cy="-726.0" r="36" fill-opacity="0.0" stroke="black" stroke-width="2" />
</svg>