<?xml version="1.0" encoding="UTF-8"?>
<svg xmlns="http://www.w3.org/2000/svg" xmlns:xlink="http://www.w3.org/1999/xlink"
     width="800" height="800" viewBox="0 -800 800 800">
<defs>
</defs>
<circle cx="81.0" cy="-71.0" r="57" fill-opacity="0.0" stroke="black" stroke-width="2" />
<circle cx="84.16666666666667" cy="-75.83333333333333" r="49" fill-opacity="0.0" stroke="black" stroke-width="3" />
<circle cx="87.33333333333333" cy="-80.66666666666667" r="53" fill-opacity="0.0" stroke="black" stroke-width="1" />
<circle cx="90.5" cy="-85.5" r="60" fill-opacity="0.0" stroke="black" stroke-width="1" />
<circle cx="93.66666666666667" cy="-90.33333333333333" r="70" fill-opacity="0.0" stroke="black" stroke-width="2" />
<circle cx="96.83333333333333" cy="-95.16666666666666" r="40" fill-opacity="0.0" stroke="black" stroke-width="3" />
<circle cx="100.0" cy="-100.0" r="48" fill-opacity="0.0" stroke="black" stroke-width="2" />
<circle cx="119.0" cy="-314.0" r="44" fill-opacity="0.0" stroke="black" stroke-width="1" />
<circle cx="115.83333333333333" cy="-311.6666666666667" r="58" fill-opacity="0.0" stroke="black" stroke-width="2" />
<circle cx="112.66666666666667" cy="-309.3333333333333" r="62" fill-opacity="0.0" stroke="black" stroke-width="1" />
<circle cx="109.5" cy="-307.0" r="52" fill-opacity="0.0" stroke="black" stroke-width="3" />
<circle cx="106.33333333333333" cy="-304.6666666666667" r="58" fill-opacity="0.0" stroke="black" stroke-width="5" />
<circle cx="103.16666666666667" cy="-302.3333333333333" r="41" fill-opacity="0.0" stroke="black" stroke-width="2" />
<circle cx="100.0" cy="-300.0" r="70" fill-opacity="0.0" stroke="black" stroke-width="2" />
<circle cx="95.0" cy="-510.0" r="66" fill-opacity="0.0" stroke="black" stroke-width="1" />
<circle cx="95.83333333333333" cy="-508.3333333333333" r="51" fill-opacity="0.0" stroke="black" stroke-width="3" />
<circle cx="96.66666666666667" cy="-506.6666666666667" r="40" fill-opacity="0.0" stroke="black" stroke-width="2" />
<circle cx="97.5" cy="-505.0" r="58" fill-opacity="0.0" stroke="black" stroke-width="2" />
<circle cx="98.33333333333333" cy="-503.3333333333333" r="61" fill-opacity="0.0" stroke="black" stroke-width="1" />
<circle cx="99.16666666666667" cy="-501.6666666666667" r="44" fill-opacity="0.0" stroke="black" stroke-width="3" />
<circle cx="100.0" cy="-500.0" r="69" fill-opacity="0.0" stroke="black" stroke-width="2" />
<circle cx="97.0" cy="-674.0" r="40" fill-opacity="0.0" stroke="black" stroke-width="1" />
<circle cx="97.5" cy="-678.3333333333334" r="50" fill-opacity="0.0" stroke="black" stroke-width="1" />
<circle cx="98.0" cy="-682.6666666666666" r="66" fill-opacity="0.0" stroke="black" stroke-width="1" />
<circle cx="98.5" cy="-687.0" r="63" fill-opacity="0.0" stroke="black" stroke-width="2" />
<circle cx="99.0" cy="-691.3333333333334" r="61" fill-opacity="0.0" stroke="black" stroke-width="1" />
<circle cx="99.5" cy="-695.6666666666666" r="42" fill-opacity="0.0" stroke="black" stroke-width="2" />
<circle cx="100.0" cy="-700.0" r="54" fill-opacity="0.0" stroke="black" stroke-width="3" />
<circle cx="291.0" cy="-90.0" r="45" fill-opacity="0.0" stroke="black" stroke-width="2" />
<circle cx="292.5" cy="-91.66666666666667" r="61" fill-opacity="0.0" stroke="black" stroke-width="1" />
<circle cx="294.0" cy="-93.33333333333333" r="48" fill-opacity="0.0" stroke="black" stroke-width="3" />
<circle cx="295.5" cy="-95.0" r="41" fill-opacity="0.0" stroke="black" stroke-width="1" />
<circle cx="297.0" cy="-96.66666666666667" r="65" fill-opacity="0.0" stroke="black" stroke-width="1" />
<circle cx="298.5" cy="-98.33333333333333" r="56" fill-opacity="0.0" stroke="black" stroke-width="2" />
<circle cx="300.0" cy="-100.0" r="56" fill-opacity="0.0" stroke="black" stroke-width="2" />
<circle cx="273.0" cy="-272.0" r="57" fill-opacity="0.0" stroke="black" stroke-width="2" />
<circle cx="277.5" cy="-276.6666666666667" r="56" fill-opacity="0.0" stroke="black" stroke-width="5" />
<circle cx="282.0" cy="-281.3333333333333" r="58" fill-opacity="0.0" stroke="black" stroke-width="2" />
<circle cx="286.5" cy="-286.0" r="57" fill-opacity="0.0" stroke="black" stroke-width="4" />
<circle cx="291.0" cy="-290.6666666666667" r="69" fill-opacity="0.0" stroke="black" stroke-width="1" />
<circle cx="295.5" cy="-295.3333333333333" r="52" fill-opacity="0.0" stroke="black" stroke-width="3" />
<circle cx="300.0" cy="-300.0" r="41" fill-opacity="0.0" stroke="black" stroke-width="2" />
<circle cx="312.0" cy="-477.0" r="54" fill-opacity="0.0" stroke="black" stroke-width="2" />
<circle cx="310.0" cy="-480.8333333333333" r="52" fill-opacity="0.0" stroke="black" stroke-width="1" />
<circle cx="308.0" cy="-484.6666666666667" r="60" fill-opacity="0.0" stroke="black" stroke-width="3" />
<circle cx="306.0" cy="-488.5" r="65" fill-opacity="0.0" stroke="black" stroke-width="2" />
<circle cx="304.0" cy="-492.3333333333333" r="63" fill-opacity="0.0" stroke="black" stroke-width="1" />
<circle cx="302.0" cy="-496.1666666666667" r="43" fill-opacity="0.0" stroke="black" stroke-width="5" />
<circle cx="300.0" cy="-500.0" r="49" fill-opacity="0.0" stroke="black" stroke-width="2" />
<circle cx="317.0" cy="-709.0" r="56" fill-opacity="0.0" stroke="black" stroke-width="2" />
<circle cx="314.1666666666667" cy="-707.5" r="65" fill-opacity="0.0" stroke="black" stroke-width="1" />
<circle cx="311.3333333333333" cy="-706.0" r="58" fill-opacity="0.0" stroke="black" stroke-width="2" />
<circle cx="308.5" cy="-704.5" r="52" fill-opacity="0.0" stroke="black" stroke-width="3" />
<circle cx="305.6666666666667" cy="-703.0" r="68" fill-opacity="0.0" stroke="black" stroke-width="1" />
<circle cx="302.8333333333333" cy="-701.5" r="70" fill-opacity="0.0" stroke="black" stroke-width="5" />
<circle cx="300.0" cy="-700.0" r="56" fill-opacity="0.0" stroke="black" stroke-width="1" />
<circle cx="528.0" cy="-84.0" r="64" fill-opacity="0.0" stroke="black" stroke-width="1" />
<circle cx="523.3333333333334" cy="-86.66666666666667" r="63" fill-opacity="0.0" stroke="black" stroke-width="3" />
<circle cx="518.6666666666666" cy="-89.33333333333333" r="64" fill-opacity="0.0" stroke="black" stroke-width="2" />
<circle cx="514.0" cy="-92.0" r="63" fill-opacity="0.0" stroke="black" stroke-width="2" />
<circle cx="509.3333333333333" cy="-94.66666666666667" r="55" fill-opacity="0.0" stroke="black" stroke-width="1" />
<circle cx="504.6666666666667" cy="-97.33333333333333" r="49" fill-opacity="0.0" stroke="black" stroke-width="1" />
<circle cx="500.0" cy="-100.0" r="56" fill-opacity="0.0" stroke="black" stroke-width="2" />
<circle cx="492.0" cy="-316.0" r="69" fill-opacity="0.0" stroke="black" stroke-width="1" />
<circle cx="493.3333333333333" cy="-313.3333333333333" r="64" fill-opacity="0.0" stroke="black" stroke-width="5" />
<circle cx="494.6666666666667" cy="-310.6666666666667" r="66" fill-opacity="0.0" stroke="black" stroke-width="1" />
<circle cx="496.0" cy="-308.0" r="52" fill-opacity="0.0" stroke="black" stroke-width="3" />
<circle cx="497.3333333333333" cy="-305.3333333333333" r="66" fill-opacity="0.0" stroke="black" stroke-width="2" />
<circle cx="498.6666666666667" cy="-302.6666666666667" r="54" fill-opacity="0.0" stroke="black" stroke-width="2" />
<circle cx="500.0" cy="-300.0" r="68" fill-opacity="0.0" stroke="black" stroke-width="1" />
<circle cx="478.0" cy="-474.0" r="70" fill-opacity="0.0" stroke="black" stroke-width="3" />
<circle cx="481.6666666666667" cy="-478.3333333333333" r="64" fill-opacity="0.0" stroke="black" stroke-width="2" />
<circle cx="485.3333333333333" cy="-482.6666666666667" r="52" fill-opacity="0.0" stroke="black" stroke-width="4" />
<circle cx="489.0" cy="-487.0" r="51" fill-opacity="0.0" stroke="black" stroke-width="2" />
<circle cx="492.6666666666667" cy="-491.3333333333333" r="69" fill-opacity="0.0" stroke="black" stroke-width="3" />
<circle cx="496.3333333333333" cy="-495.6666666666667" r="68" fill-opacity="0.0" stroke="black" stroke-width="1" />
<circle cx="500.0" cy="-500.0" r="53" fill-opacity="0.0" stroke="black" stroke-width="2" />
<circle cx="478.0" cy="-726.0" r="57" fill-opacity="0.0" stroke="black" stroke-width="4" />
<circle cx="481.6666666666667" cy="-721.6666666666666" r="60" fill-opacity="0.0" stroke="black" stroke-width="3" />
<circle cx="485.3333333333333" cy="-717.3333333333334" r="65" fill-opacity="0.0" stroke="black" stroke-width="2" />
<circle cx="489.0" cy="-713.0" r="62" fill-opacity="0.0" stroke="black" stroke-width="5" />
<circle cx="492.6666666666667" cy="-708.6666666666666" r="67" fill-opacity="0.0" stroke="black" stroke-width="2" />
<circle cx="496.3333333333333" cy="-704.3333333333334" r="41" fill-opacity="0.0" stroke="black" stroke-width="3" />
<circle cx="500.0" cy="-700.0" r="46" fill-opacity="0.0" stroke="black" stroke-width="2" />
<circle cx="697.0" cy="-103.0" r="47" fill-opacity="0.0" stroke="black" stroke-width="2" />
<circle cx="697.5" cy="-102.5" r="65" fill-opacity="0.0" stroke="black" stroke-width="1" />
<circle cx="698.0" cy="-102.0" r="56" fill-opacity="0.0" stroke="black" stroke-width="4" />
<circle cx="698.5" cy="-101.5" r="57" fill-opacity="0.0" stroke="black" stroke-width="2" />
<circle cx="699.0" cy="-101.0" r="52" fill-opacity="0.0" stroke="black" stroke-width="3" />
<circle cx="699.5" cy="-100.5" r="47" fill-opacity="0.0" stroke="black" stroke-width="2" />
<circle cx="700.0" cy="-100.0" r="47" fill-opacity="0.0" stroke="black" stroke-width="1" />
<circle cx="723.0" cy="-277.0" r="46" fill-opacity="0.0" stroke="black" stroke-width="3" />
<circle cx="719.1666666666666" cy="-280.8333333333333" r="50" fill-opacity="0.0" stroke="black" stroke-width="1" />
<circle cx="715.3333333333334" cy="-284.6666666666667" r="50" fill-opacity="0.0" stroke="black" stroke-width="2" />
<circle cx="711.5" cy="-288.5" r="50" fill-opacity="0.0" stroke="black" stroke-width="2" />
<circle cx="707.6666666666666" cy="-292.3333333333333" r="46" fill-opacity="0.0" stroke="black" stroke-width="5" />
<circle cx="703.8333333333334" cy="-296.1666666666667" r="63" fill-opacity="0.0" stroke="black" stroke-width="2" />
<circle cx="700.0" cy="-300.0" r="68" fill-opacity="0.0" stroke="black" stroke-width="5" />
<circle cx="697.0" cy="-494.0" r="58" fill-opacity="0.0" stroke="black" stroke-width="1" />
<circle cx="697.5" cy="-495.0" r="55" fill-opacity="0.0" stroke="black" stroke-width="4" />
<circle cx="698.0" cy="-496.0" r="67" fill-opacity="0.0" stroke="black" stroke-width="1" />
<circle cx="698.5" cy="-497.0" r="43" fill-opacity="0.0" stroke="black" stroke-width="2" />
<circle cx="699.0" cy="-498.0" r="40" fill-opacity="0.0" stroke="black" stroke-width="2" />
<circle cx="699.5" cy="-499.0" r="70" fill-opacity="0.0" stroke="black" stroke-width="1" />
<circle cx="700.0" cy="-500.0" r="67" fill-opacity="0.0" stroke="black" stroke-width="2" />
<circle cx="679.0" cy="-716.0" r="46" fill-opacity="0.0" stroke="black" stroke-width="3" />
<circle cx="682.5" cy="-713.3333333333334" r="44" fill-opacity="0.0" stroke="black" stroke-width="1" />
<circle cx="686.0" cy="-710.6666666666666" r="50" fill-opacity="0.0" stroke="black" stroke-width="1" />
<circle cx="689.5" cy="-708.0" r="41" fill-opacity="0.0" stroke="black" stroke-width="1" />
<circle cx="693.0" cy="-705.3333333333334" r="60" fill-opacity="0.0" stroke="black" stroke-width="1" />
<circle cx="696.5" cy="-702.6666666666666" r="70" fill-opacity="0.0" stroke="black" stroke-width="4" />
<circle cx="700.0" cy="-700.0" r="58" fill-opacity="0.0" stroke="black" stroke-width="1" />
</svg>